<svg xmlns="http://www.w3.org/2000/svg" xmlns:xlink="http://www.w3.org/1999/xlink" xmlns:inkscape="http://www.inkscape.org/namespaces/inkscape" version="1.1" width="841.68" height="595.2" viewBox="0 0 841.68 595.2">
<defs>
<clipPath id="clip_1">
<path transform="matrix(1,0,0,-1,0,595.2)" d="M51.384 57.96H786.48397V540.12H51.384Z" clip-rule="evenodd"/>
</clipPath>
<clipPath id="clip_2">
<path transform="matrix(1,0,0,-1,0,595.2)" d="M140.3 58.44H178.004V73.104H140.3Z" clip-rule="evenodd"/>
</clipPath>
<clipPath id="clip_3">
<path transform="matrix(1,0,0,-1,0,595.2)" d="M140.3 497.74H178.004V512.404H140.3Z" clip-rule="evenodd"/>
</clipPath>
<clipPath id="clip_4">
<path transform="matrix(1,0,0,-1,0,595.2)" d="M178.01 497.74H213.76999V512.404H178.01Z" clip-rule="evenodd"/>
</clipPath>
<clipPath id="clip_5">
<path transform="matrix(1,0,0,-1,0,595.2)" d="M213.77 497.74H249.53V512.404H213.77Z" clip-rule="evenodd"/>
</clipPath>
<clipPath id="clip_6">
<path transform="matrix(1,0,0,-1,0,595.2)" d="M392.59 497.74H428.35V512.404H392.59Z" clip-rule="evenodd"/>
</clipPath>
<clipPath id="clip_7">
<path transform="matrix(1,0,0,-1,0,595.2)" d="M249.53 497.74H285.29V512.404H249.53Z" clip-rule="evenodd"/>
</clipPath>
<clipPath id="clip_8">
<path transform="matrix(1,0,0,-1,0,595.2)" d="M86.664 102.38H122.423999V117.02H86.664Z" clip-rule="evenodd"/>
</clipPath>
<clipPath id="clip_9">
<path transform="matrix(1,0,0,-1,0,595.2)" d="M86.664 87.744H122.423999V102.384H86.664Z" clip-rule="evenodd"/>
</clipPath>
<clipPath id="clip_10">
<path transform="matrix(1,0,0,-1,0,595.2)" d="M392.59 365.95H428.35V380.59004H392.59Z" clip-rule="evenodd"/>
</clipPath>
<clipPath id="clip_11">
<path transform="matrix(1,0,0,-1,0,595.2)" d="M392.59 336.67H428.35V365.95H392.59Z" clip-rule="evenodd"/>
</clipPath>
<clipPath id="clip_12">
<path transform="matrix(1,0,0,-1,0,595.2)" d="M750.24 234.17H786V248.81H750.24Z" clip-rule="evenodd"/>
</clipPath>
<clipPath id="clip_13">
<path transform="matrix(1,0,0,-1,0,595.2)" d="M750.24 160.94H786V234.164H750.24Z" clip-rule="evenodd"/>
</clipPath>
<clipPath id="clip_14">
<path transform="matrix(1,0,0,-1,0,595.2)" d="M428.35 497.74H464.11003V512.404H428.35Z" clip-rule="evenodd"/>
</clipPath>
<clipPath id="clip_15">
<path transform="matrix(1,0,0,-1,0,595.2)" d="M464.11 497.74H499.87V512.404H464.11Z" clip-rule="evenodd"/>
</clipPath>
<clipPath id="clip_16">
<path transform="matrix(1,0,0,-1,0,595.2)" d="M499.87 497.74H535.654V512.404H499.87Z" clip-rule="evenodd"/>
</clipPath>
<clipPath id="clip_17">
<path transform="matrix(1,0,0,-1,0,595.2)" d="M750.24 263.45H786V278.09004H750.24Z" clip-rule="evenodd"/>
</clipPath>
<clipPath id="clip_18">
<path transform="matrix(1,0,0,-1,0,595.2)" d="M750.24 336.67H786V351.31004H750.24Z" clip-rule="evenodd"/>
</clipPath>
<clipPath id="clip_19">
<path transform="matrix(1,0,0,-1,0,595.2)" d="M86.664 395.23H122.423999V409.894H86.664Z" clip-rule="evenodd"/>
</clipPath>
<clipPath id="clip_20">
<path transform="matrix(1,0,0,-1,0,595.2)" d="M86.664 292.75H122.423999V307.39H86.664Z" clip-rule="evenodd"/>
</clipPath>
<clipPath id="clip_21">
<path transform="matrix(1,0,0,-1,0,595.2)" d="M86.664 307.39H122.423999V322.03004H86.664Z" clip-rule="evenodd"/>
</clipPath>
<clipPath id="clip_22">
<path transform="matrix(1,0,0,-1,0,595.2)" d="M607.18 322.03H642.94V351.31H607.18Z" clip-rule="evenodd"/>
</clipPath>
<clipPath id="clip_23">
<path transform="matrix(1,0,0,-1,0,595.2)" d="M285.29 497.74H321.05003V512.404H285.29Z" clip-rule="evenodd"/>
</clipPath>
<clipPath id="clip_24">
<path transform="matrix(1,0,0,-1,0,595.2)" d="M195.89 453.82H231.65V468.46003H195.89Z" clip-rule="evenodd"/>
</clipPath>
<clipPath id="clip_25">
<path transform="matrix(1,0,0,-1,0,595.2)" d="M195.89 439.18H231.65V453.82H195.89Z" clip-rule="evenodd"/>
</clipPath>
<clipPath id="clip_26">
<path transform="matrix(1,0,0,-1,0,595.2)" d="M195.89 380.59H231.65V409.89399H195.89Z" clip-rule="evenodd"/>
</clipPath>
<clipPath id="clip_27">
<path transform="matrix(1,0,0,-1,0,595.2)" d="M321.05 497.74H356.83399V512.404H321.05Z" clip-rule="evenodd"/>
</clipPath>
<clipPath id="clip_28">
<path transform="matrix(1,0,0,-1,0,595.2)" d="M195.89 424.54H231.65V439.18003H195.89Z" clip-rule="evenodd"/>
</clipPath>
<clipPath id="clip_29">
<path transform="matrix(1,0,0,-1,0,595.2)" d="M356.83 497.74H392.59V512.404H356.83Z" clip-rule="evenodd"/>
</clipPath>
<clipPath id="clip_30">
<path transform="matrix(1,0,0,-1,0,595.2)" d="M86.664 497.74H122.423999V512.404H86.664Z" clip-rule="evenodd"/>
</clipPath>
<clipPath id="clip_31">
<path transform="matrix(1,0,0,-1,0,595.2)" d="M86.664 483.1H122.423999V497.74003H86.664Z" clip-rule="evenodd"/>
</clipPath>
<clipPath id="clip_32">
<path transform="matrix(1,0,0,-1,0,595.2)" d="M86.664 468.46H122.423999V483.1H86.664Z" clip-rule="evenodd"/>
</clipPath>
<clipPath id="clip_33">
<path transform="matrix(1,0,0,-1,0,595.2)" d="M86.664 453.82H122.423999V468.46003H86.664Z" clip-rule="evenodd"/>
</clipPath>
<clipPath id="clip_34">
<path transform="matrix(1,0,0,-1,0,595.2)" d="M86.664 439.18H122.423999V453.82H86.664Z" clip-rule="evenodd"/>
</clipPath>
<clipPath id="clip_35">
<path transform="matrix(1,0,0,-1,0,595.2)" d="M86.664 424.54H122.423999V439.18003H86.664Z" clip-rule="evenodd"/>
</clipPath>
<clipPath id="clip_36">
<path transform="matrix(1,0,0,-1,0,595.2)" d="M86.664 409.9H122.423999V424.54H86.664Z" clip-rule="evenodd"/>
</clipPath>
<clipPath id="clip_37">
<path transform="matrix(1,0,0,-1,0,595.2)" d="M231.65 380.59H267.41V409.89399H231.65Z" clip-rule="evenodd"/>
</clipPath>
<clipPath id="clip_38">
<path transform="matrix(1,0,0,-1,0,595.2)" d="M231.65 453.82H267.41V468.46003H231.65Z" clip-rule="evenodd"/>
</clipPath>
<clipPath id="clip_39">
<path transform="matrix(1,0,0,-1,0,595.2)" d="M231.65 439.18H267.41V453.82H231.65Z" clip-rule="evenodd"/>
</clipPath>
<clipPath id="clip_40">
<path transform="matrix(1,0,0,-1,0,595.2)" d="M231.65 424.54H267.41V439.18003H231.65Z" clip-rule="evenodd"/>
</clipPath>
<clipPath id="clip_41">
<path transform="matrix(1,0,0,-1,0,595.2)" d="M231.65 409.9H267.41V424.54H231.65Z" clip-rule="evenodd"/>
</clipPath>
<clipPath id="clip_42">
<path transform="matrix(1,0,0,-1,0,595.2)" d="M86.664 336.67H122.423999V351.31004H86.664Z" clip-rule="evenodd"/>
</clipPath>
<clipPath id="clip_43">
<path transform="matrix(1,0,0,-1,0,595.2)" d="M195.89 409.9H231.65V424.54H195.89Z" clip-rule="evenodd"/>
</clipPath>
<clipPath id="clip_44">
<path transform="matrix(1,0,0,-1,0,595.2)" d="M195.89 336.67H231.65V365.95H195.89Z" clip-rule="evenodd"/>
</clipPath>
<clipPath id="clip_45">
<path transform="matrix(1,0,0,-1,0,595.2)" d="M86.664 322.03H122.423999V336.67H86.664Z" clip-rule="evenodd"/>
</clipPath>
<clipPath id="clip_46">
<path transform="matrix(1,0,0,-1,0,595.2)" d="M86.664 351.31H122.423999V395.22999H86.664Z" clip-rule="evenodd"/>
</clipPath>
<clipPath id="clip_47">
<path transform="matrix(1,0,0,-1,0,595.2)" d="M86.664 117.02H122.423999V131.66H86.664Z" clip-rule="evenodd"/>
</clipPath>
<clipPath id="clip_48">
<path transform="matrix(1,0,0,-1,0,595.2)" d="M195.89 248.81H231.65V263.45H195.89Z" clip-rule="evenodd"/>
</clipPath>
<clipPath id="clip_49">
<path transform="matrix(1,0,0,-1,0,595.2)" d="M86.664 248.81H122.423999V263.45H86.664Z" clip-rule="evenodd"/>
</clipPath>
<clipPath id="clip_50">
<path transform="matrix(1,0,0,-1,0,595.2)" d="M86.664 263.45H122.423999V292.75404H86.664Z" clip-rule="evenodd"/>
</clipPath>
<clipPath id="clip_51">
<path transform="matrix(1,0,0,-1,0,595.2)" d="M86.664 234.17H122.423999V248.81H86.664Z" clip-rule="evenodd"/>
</clipPath>
<clipPath id="clip_52">
<path transform="matrix(1,0,0,-1,0,595.2)" d="M86.664 219.53H122.423999V234.17H86.664Z" clip-rule="evenodd"/>
</clipPath>
<clipPath id="clip_53">
<path transform="matrix(1,0,0,-1,0,595.2)" d="M86.664 204.89H122.423999V219.53H86.664Z" clip-rule="evenodd"/>
</clipPath>
<clipPath id="clip_54">
<path transform="matrix(1,0,0,-1,0,595.2)" d="M86.664 190.25H122.423999V204.89H86.664Z" clip-rule="evenodd"/>
</clipPath>
<clipPath id="clip_55">
<path transform="matrix(1,0,0,-1,0,595.2)" d="M86.664 175.58H122.423999V190.244H86.664Z" clip-rule="evenodd"/>
</clipPath>
<clipPath id="clip_56">
<path transform="matrix(1,0,0,-1,0,595.2)" d="M86.664 160.94H122.423999V175.58H86.664Z" clip-rule="evenodd"/>
</clipPath>
<clipPath id="clip_57">
<path transform="matrix(1,0,0,-1,0,595.2)" d="M86.664 146.3H122.423999V160.94H86.664Z" clip-rule="evenodd"/>
</clipPath>
<clipPath id="clip_58">
<path transform="matrix(1,0,0,-1,0,595.2)" d="M195.89 365.95H231.65V380.59004H195.89Z" clip-rule="evenodd"/>
</clipPath>
<clipPath id="clip_59">
<path transform="matrix(1,0,0,-1,0,595.2)" d="M195.89 278.09H231.65V292.754H195.89Z" clip-rule="evenodd"/>
</clipPath>
<clipPath id="clip_60">
<path transform="matrix(1,0,0,-1,0,595.2)" d="M195.89 322.03H231.65V336.67H195.89Z" clip-rule="evenodd"/>
</clipPath>
<clipPath id="clip_61">
<path transform="matrix(1,0,0,-1,0,595.2)" d="M86.664 131.66H122.423999V146.3H86.664Z" clip-rule="evenodd"/>
</clipPath>
<clipPath id="clip_62">
<path transform="matrix(1,0,0,-1,0,595.2)" d="M195.89 292.75H231.65V322.03H195.89Z" clip-rule="evenodd"/>
</clipPath>
<clipPath id="clip_63">
<path transform="matrix(1,0,0,-1,0,595.2)" d="M195.89 263.45H231.65V278.09004H195.89Z" clip-rule="evenodd"/>
</clipPath>
<clipPath id="clip_64">
<path transform="matrix(1,0,0,-1,0,595.2)" d="M195.89 234.17H231.65V248.81H195.89Z" clip-rule="evenodd"/>
</clipPath>
<clipPath id="clip_65">
<path transform="matrix(1,0,0,-1,0,595.2)" d="M678.72 58.44H714.48V73.104H678.72Z" clip-rule="evenodd"/>
</clipPath>
<clipPath id="clip_66">
<path transform="matrix(1,0,0,-1,0,595.2)" d="M642.94 292.75H678.724V322.03H642.94Z" clip-rule="evenodd"/>
</clipPath>
<clipPath id="clip_67">
<path transform="matrix(1,0,0,-1,0,595.2)" d="M750.24 483.1H786V497.74003H750.24Z" clip-rule="evenodd"/>
</clipPath>
<clipPath id="clip_68">
<path transform="matrix(1,0,0,-1,0,595.2)" d="M714.48 497.74H750.24V512.404H714.48Z" clip-rule="evenodd"/>
</clipPath>
<clipPath id="clip_69">
<path transform="matrix(1,0,0,-1,0,595.2)" d="M750.24 424.54H786V439.18003H750.24Z" clip-rule="evenodd"/>
</clipPath>
<clipPath id="clip_70">
<path transform="matrix(1,0,0,-1,0,595.2)" d="M535.66 497.74H571.42V512.404H535.66Z" clip-rule="evenodd"/>
</clipPath>
<clipPath id="clip_71">
<path transform="matrix(1,0,0,-1,0,595.2)" d="M571.42 497.74H607.18V512.404H571.42Z" clip-rule="evenodd"/>
</clipPath>
<clipPath id="clip_72">
<path transform="matrix(1,0,0,-1,0,595.2)" d="M607.18 497.74H642.94V512.404H607.18Z" clip-rule="evenodd"/>
</clipPath>
<clipPath id="clip_73">
<path transform="matrix(1,0,0,-1,0,595.2)" d="M642.94 497.74H678.724V512.404H642.94Z" clip-rule="evenodd"/>
</clipPath>
<clipPath id="clip_74">
<path transform="matrix(1,0,0,-1,0,595.2)" d="M678.72 497.74H714.48V512.404H678.72Z" clip-rule="evenodd"/>
</clipPath>
<clipPath id="clip_75">
<path transform="matrix(1,0,0,-1,0,595.2)" d="M750.24 453.82H786V483.1H750.24Z" clip-rule="evenodd"/>
</clipPath>
<clipPath id="clip_76">
<path transform="matrix(1,0,0,-1,0,595.2)" d="M750.24 439.18H786V453.82H750.24Z" clip-rule="evenodd"/>
</clipPath>
<clipPath id="clip_77">
<path transform="matrix(1,0,0,-1,0,595.2)" d="M607.18 409.9H642.94V468.46H607.18Z" clip-rule="evenodd"/>
</clipPath>
<clipPath id="clip_78">
<path transform="matrix(1,0,0,-1,0,595.2)" d="M642.94 439.18H678.724V468.46H642.94Z" clip-rule="evenodd"/>
</clipPath>
<clipPath id="clip_79">
<path transform="matrix(1,0,0,-1,0,595.2)" d="M642.94 409.9H678.724V439.18H642.94Z" clip-rule="evenodd"/>
</clipPath>
<clipPath id="clip_80">
<path transform="matrix(1,0,0,-1,0,595.2)" d="M750.24 409.9H786V424.54H750.24Z" clip-rule="evenodd"/>
</clipPath>
<clipPath id="clip_81">
<path transform="matrix(1,0,0,-1,0,595.2)" d="M714.48 58.44H750.24V73.104H714.48Z" clip-rule="evenodd"/>
</clipPath>
<clipPath id="clip_82">
<path transform="matrix(1,0,0,-1,0,595.2)" d="M750.24 395.23H786V409.894H750.24Z" clip-rule="evenodd"/>
</clipPath>
<clipPath id="clip_83">
<path transform="matrix(1,0,0,-1,0,595.2)" d="M750.24 380.59H786V395.23H750.24Z" clip-rule="evenodd"/>
</clipPath>
<clipPath id="clip_84">
<path transform="matrix(1,0,0,-1,0,595.2)" d="M750.24 351.31H786V380.59H750.24Z" clip-rule="evenodd"/>
</clipPath>
<clipPath id="clip_85">
<path transform="matrix(1,0,0,-1,0,595.2)" d="M750.24 278.09H786V292.754H750.24Z" clip-rule="evenodd"/>
</clipPath>
<clipPath id="clip_86">
<path transform="matrix(1,0,0,-1,0,595.2)" d="M607.18 365.95H642.94V409.894H607.18Z" clip-rule="evenodd"/>
</clipPath>
<clipPath id="clip_87">
<path transform="matrix(1,0,0,-1,0,595.2)" d="M607.18 351.31H642.94V365.95H607.18Z" clip-rule="evenodd"/>
</clipPath>
<clipPath id="clip_88">
<path transform="matrix(1,0,0,-1,0,595.2)" d="M607.18 292.75H642.94V322.03H607.18Z" clip-rule="evenodd"/>
</clipPath>
<clipPath id="clip_89">
<path transform="matrix(1,0,0,-1,0,595.2)" d="M607.18 278.09H642.94V292.754H607.18Z" clip-rule="evenodd"/>
</clipPath>
<clipPath id="clip_90">
<path transform="matrix(1,0,0,-1,0,595.2)" d="M607.18 248.81H642.94V278.09H607.18Z" clip-rule="evenodd"/>
</clipPath>
<clipPath id="clip_91">
<path transform="matrix(1,0,0,-1,0,595.2)" d="M750.24 292.75H786V336.66999H750.24Z" clip-rule="evenodd"/>
</clipPath>
<clipPath id="clip_92">
<path transform="matrix(1,0,0,-1,0,595.2)" d="M750.24 248.81H786V263.45H750.24Z" clip-rule="evenodd"/>
</clipPath>
<clipPath id="clip_93">
<path transform="matrix(1,0,0,-1,0,595.2)" d="M642.94 395.23H678.724V409.894H642.94Z" clip-rule="evenodd"/>
</clipPath>
<clipPath id="clip_94">
<path transform="matrix(1,0,0,-1,0,595.2)" d="M642.94 380.59H678.724V395.23H642.94Z" clip-rule="evenodd"/>
</clipPath>
<clipPath id="clip_95">
<path transform="matrix(1,0,0,-1,0,595.2)" d="M642.94 365.95H678.724V380.59004H642.94Z" clip-rule="evenodd"/>
</clipPath>
<clipPath id="clip_96">
<path transform="matrix(1,0,0,-1,0,595.2)" d="M642.94 336.67H678.724V365.95H642.94Z" clip-rule="evenodd"/>
</clipPath>
<clipPath id="clip_97">
<path transform="matrix(1,0,0,-1,0,595.2)" d="M642.94 322.03H678.724V336.67H642.94Z" clip-rule="evenodd"/>
</clipPath>
<clipPath id="clip_98">
<path transform="matrix(1,0,0,-1,0,595.2)" d="M428.35 365.95H464.11003V380.59004H428.35Z" clip-rule="evenodd"/>
</clipPath>
<clipPath id="clip_99">
<path transform="matrix(1,0,0,-1,0,595.2)" d="M428.35 351.31H464.11003V365.95H428.35Z" clip-rule="evenodd"/>
</clipPath>
<clipPath id="clip_100">
<path transform="matrix(1,0,0,-1,0,595.2)" d="M428.35 322.03H464.11003V351.31H428.35Z" clip-rule="evenodd"/>
</clipPath>
<clipPath id="clip_101">
<path transform="matrix(1,0,0,-1,0,595.2)" d="M428.35 307.39H464.11003V322.03004H428.35Z" clip-rule="evenodd"/>
</clipPath>
<clipPath id="clip_102">
<path transform="matrix(1,0,0,-1,0,595.2)" d="M195.89 219.53H231.65V234.17H195.89Z" clip-rule="evenodd"/>
</clipPath>
<clipPath id="clip_103">
<path transform="matrix(1,0,0,-1,0,595.2)" d="M392.59 307.39H428.35V336.67H392.59Z" clip-rule="evenodd"/>
</clipPath>
<clipPath id="clip_104">
<path transform="matrix(1,0,0,-1,0,595.2)" d="M392.59 263.45H428.35V278.09004H392.59Z" clip-rule="evenodd"/>
</clipPath>
<clipPath id="clip_105">
<path transform="matrix(1,0,0,-1,0,595.2)" d="M392.59 248.81H428.35V263.45H392.59Z" clip-rule="evenodd"/>
</clipPath>
<clipPath id="clip_106">
<path transform="matrix(1,0,0,-1,0,595.2)" d="M231.65 365.95H267.41V380.59004H231.65Z" clip-rule="evenodd"/>
</clipPath>
<clipPath id="clip_107">
<path transform="matrix(1,0,0,-1,0,595.2)" d="M231.65 351.31H267.41V365.95H231.65Z" clip-rule="evenodd"/>
</clipPath>
<clipPath id="clip_108">
<path transform="matrix(1,0,0,-1,0,595.2)" d="M231.65 336.67H267.41V351.31004H231.65Z" clip-rule="evenodd"/>
</clipPath>
<clipPath id="clip_109">
<path transform="matrix(1,0,0,-1,0,595.2)" d="M231.65 322.03H267.41V336.67H231.65Z" clip-rule="evenodd"/>
</clipPath>
<clipPath id="clip_110">
<path transform="matrix(1,0,0,-1,0,595.2)" d="M231.65 307.39H267.41V322.03004H231.65Z" clip-rule="evenodd"/>
</clipPath>
<clipPath id="clip_111">
<path transform="matrix(1,0,0,-1,0,595.2)" d="M231.65 278.09H267.41V307.39399H231.65Z" clip-rule="evenodd"/>
</clipPath>
<clipPath id="clip_112">
<path transform="matrix(1,0,0,-1,0,595.2)" d="M231.65 263.45H267.41V278.09004H231.65Z" clip-rule="evenodd"/>
</clipPath>
<clipPath id="clip_113">
<path transform="matrix(1,0,0,-1,0,595.2)" d="M231.65 248.81H267.41V263.45H231.65Z" clip-rule="evenodd"/>
</clipPath>
<clipPath id="clip_114">
<path transform="matrix(1,0,0,-1,0,595.2)" d="M392.59 292.75H428.35V307.39H392.59Z" clip-rule="evenodd"/>
</clipPath>
<clipPath id="clip_115">
<path transform="matrix(1,0,0,-1,0,595.2)" d="M392.59 278.09H428.35V292.754H392.59Z" clip-rule="evenodd"/>
</clipPath>
<clipPath id="clip_116">
<path transform="matrix(1,0,0,-1,0,595.2)" d="M392.59 453.82H428.35V468.46003H392.59Z" clip-rule="evenodd"/>
</clipPath>
<clipPath id="clip_117">
<path transform="matrix(1,0,0,-1,0,595.2)" d="M392.59 439.18H428.35V453.82H392.59Z" clip-rule="evenodd"/>
</clipPath>
<clipPath id="clip_118">
<path transform="matrix(1,0,0,-1,0,595.2)" d="M392.59 409.9H428.35V424.54H392.59Z" clip-rule="evenodd"/>
</clipPath>
<clipPath id="clip_119">
<path transform="matrix(1,0,0,-1,0,595.2)" d="M392.59 424.54H428.35V439.18003H392.59Z" clip-rule="evenodd"/>
</clipPath>
<clipPath id="clip_120">
<path transform="matrix(1,0,0,-1,0,595.2)" d="M392.59 380.59H428.35V395.23H392.59Z" clip-rule="evenodd"/>
</clipPath>
<clipPath id="clip_121">
<path transform="matrix(1,0,0,-1,0,595.2)" d="M392.59 395.23H428.35V409.894H392.59Z" clip-rule="evenodd"/>
</clipPath>
<clipPath id="clip_122">
<path transform="matrix(1,0,0,-1,0,595.2)" d="M428.35 453.82H464.11003V468.46003H428.35Z" clip-rule="evenodd"/>
</clipPath>
<clipPath id="clip_123">
<path transform="matrix(1,0,0,-1,0,595.2)" d="M428.35 424.54H464.11003V453.82H428.35Z" clip-rule="evenodd"/>
</clipPath>
<clipPath id="clip_124">
<path transform="matrix(1,0,0,-1,0,595.2)" d="M428.35 409.9H464.11003V424.54H428.35Z" clip-rule="evenodd"/>
</clipPath>
<clipPath id="clip_125">
<path transform="matrix(1,0,0,-1,0,595.2)" d="M428.35 395.23H464.11003V409.894H428.35Z" clip-rule="evenodd"/>
</clipPath>
<clipPath id="clip_126">
<path transform="matrix(1,0,0,-1,0,595.2)" d="M428.35 380.59H464.11003V395.23H428.35Z" clip-rule="evenodd"/>
</clipPath>
<clipPath id="clip_127">
<path transform="matrix(1,0,0,-1,0,595.2)" d="M178.01 58.44H213.76999V73.104H178.01Z" clip-rule="evenodd"/>
</clipPath>
<clipPath id="clip_128">
<path transform="matrix(1,0,0,-1,0,595.2)" d="M213.77 58.44H249.53V73.104H213.77Z" clip-rule="evenodd"/>
</clipPath>
<clipPath id="clip_129">
<path transform="matrix(1,0,0,-1,0,595.2)" d="M249.53 58.44H285.29V73.104H249.53Z" clip-rule="evenodd"/>
</clipPath>
<clipPath id="clip_130">
<path transform="matrix(1,0,0,-1,0,595.2)" d="M285.29 58.44H321.05003V73.104H285.29Z" clip-rule="evenodd"/>
</clipPath>
<clipPath id="clip_131">
<path transform="matrix(1,0,0,-1,0,595.2)" d="M499.87 58.44H535.654V73.104H499.87Z" clip-rule="evenodd"/>
</clipPath>
<clipPath id="clip_132">
<path transform="matrix(1,0,0,-1,0,595.2)" d="M642.94 263.45H678.724V292.75404H642.94Z" clip-rule="evenodd"/>
</clipPath>
<clipPath id="clip_133">
<path transform="matrix(1,0,0,-1,0,595.2)" d="M642.94 234.17H678.724V263.45H642.94Z" clip-rule="evenodd"/>
</clipPath>
<clipPath id="clip_134">
<path transform="matrix(1,0,0,-1,0,595.2)" d="M642.94 219.53H678.724V234.17H642.94Z" clip-rule="evenodd"/>
</clipPath>
<clipPath id="clip_135">
<path transform="matrix(1,0,0,-1,0,595.2)" d="M231.65 219.53H267.41V248.81H231.65Z" clip-rule="evenodd"/>
</clipPath>
<clipPath id="clip_136">
<path transform="matrix(1,0,0,-1,0,595.2)" d="M231.65 204.89H267.41V219.53H231.65Z" clip-rule="evenodd"/>
</clipPath>
<clipPath id="clip_137">
<path transform="matrix(1,0,0,-1,0,595.2)" d="M231.65 190.25H267.41V204.89H231.65Z" clip-rule="evenodd"/>
</clipPath>
<clipPath id="clip_138">
<path transform="matrix(1,0,0,-1,0,595.2)" d="M464.11 58.44H499.87V73.104H464.11Z" clip-rule="evenodd"/>
</clipPath>
<clipPath id="clip_139">
<path transform="matrix(1,0,0,-1,0,595.2)" d="M428.35 278.09H464.11003V307.39399H428.35Z" clip-rule="evenodd"/>
</clipPath>
<clipPath id="clip_140">
<path transform="matrix(1,0,0,-1,0,595.2)" d="M428.35 263.45H464.11003V278.09004H428.35Z" clip-rule="evenodd"/>
</clipPath>
<clipPath id="clip_141">
<path transform="matrix(1,0,0,-1,0,595.2)" d="M428.35 248.81H464.11003V263.45H428.35Z" clip-rule="evenodd"/>
</clipPath>
<clipPath id="clip_142">
<path transform="matrix(1,0,0,-1,0,595.2)" d="M571.42 58.44H607.18V73.104H571.42Z" clip-rule="evenodd"/>
</clipPath>
<clipPath id="clip_143">
<path transform="matrix(1,0,0,-1,0,595.2)" d="M535.66 58.44H571.42V73.104H535.66Z" clip-rule="evenodd"/>
</clipPath>
<clipPath id="clip_144">
<path transform="matrix(1,0,0,-1,0,595.2)" d="M642.94 58.44H678.724V73.104H642.94Z" clip-rule="evenodd"/>
</clipPath>
<clipPath id="clip_145">
<path transform="matrix(1,0,0,-1,0,595.2)" d="M607.18 58.44H642.94V73.104H607.18Z" clip-rule="evenodd"/>
</clipPath>
<clipPath id="clip_146">
<path transform="matrix(1,0,0,-1,0,595.2)" d="M607.18 234.17H642.94V248.81H607.18Z" clip-rule="evenodd"/>
</clipPath>
<clipPath id="clip_147">
<path transform="matrix(1,0,0,-1,0,595.2)" d="M321.05 58.44H356.83399V73.104H321.05Z" clip-rule="evenodd"/>
</clipPath>
<clipPath id="clip_148">
<path transform="matrix(1,0,0,-1,0,595.2)" d="M49.464 55.92H788.524V542.04H49.464Z" clip-rule="evenodd"/>
</clipPath>
</defs>
<g>
<g clip-path="url(#clip_1)">
<path transform="matrix(1,0,0,-1,0,595.2)" d="M86.664 497.62H122.54401V512.404H86.664Z" fill="#ffc000" fill-rule="evenodd"/>
<path transform="matrix(1,0,0,-1,0,595.2)" d="M140.3 497.62H178.12401V512.404H140.3Z" fill="#ffc000" fill-rule="evenodd"/>
<path transform="matrix(1,0,0,-1,0,595.2)" d="M213.77 497.62H428.47V512.404H213.77Z" fill="#ff0000" fill-rule="evenodd"/>
<path transform="matrix(1,0,0,-1,0,595.2)" d="M428.35 497.62H464.23V512.404H428.35Z" fill="#ffc000" fill-rule="evenodd"/>
<path transform="matrix(1,0,0,-1,0,595.2)" d="M535.66 497.62H571.54V512.404H535.66Z" fill="#ff0000" fill-rule="evenodd"/>
<path transform="matrix(1,0,0,-1,0,595.2)" d="M642.94 497.62H678.844V512.404H642.94Z" fill="#ff0000" fill-rule="evenodd"/>
<path transform="matrix(1,0,0,-1,0,595.2)" d="M678.72 497.62H714.6V512.404H678.72Z" fill="#ffc000" fill-rule="evenodd"/>
<path transform="matrix(1,0,0,-1,0,595.2)" d="M714.48 497.62H750.36V512.404H714.48Z" fill="#ff0000" fill-rule="evenodd"/>
<path transform="matrix(1,0,0,-1,0,595.2)" d="M86.664 482.98H122.54401V497.74003H86.664Z" fill="#92d050" fill-rule="evenodd"/>
<path transform="matrix(1,0,0,-1,0,595.2)" d="M750.24 482.98H786.12V497.74003H750.24Z" fill="#ffff00" fill-rule="evenodd"/>
<path transform="matrix(1,0,0,-1,0,595.2)" d="M86.664 453.7H122.54401V483.1H86.664Z" fill="#ff0000" fill-rule="evenodd"/>
<path transform="matrix(1,0,0,-1,0,595.2)" d="M195.89 453.7H267.53V468.46003H195.89Z" fill="#ff0000" fill-rule="evenodd"/>
<path transform="matrix(1,0,0,-1,0,595.2)" d="M392.59 453.7H464.22999V468.46003H392.59Z" fill="#ff0000" fill-rule="evenodd"/>
<path transform="matrix(1,0,0,-1,0,595.2)" d="M607.18 453.7H678.844V468.46003H607.18Z" fill="#ff0000" fill-rule="evenodd"/>
<path transform="matrix(1,0,0,-1,0,595.2)" d="M86.664 439.06H122.54401V453.82H86.664Z" fill="#ffc000" fill-rule="evenodd"/>
<path transform="matrix(1,0,0,-1,0,595.2)" d="M195.89 439.06H231.77V453.82H195.89Z" fill="#ffc000" fill-rule="evenodd"/>
<path transform="matrix(1,0,0,-1,0,595.2)" d="M231.65 439.06H267.53V453.82H231.65Z" fill="#ff0000" fill-rule="evenodd"/>
<path transform="matrix(1,0,0,-1,0,595.2)" d="M392.59 439.06H464.22999V453.82H392.59Z" fill="#ff0000" fill-rule="evenodd"/>
<path transform="matrix(1,0,0,-1,0,595.2)" d="M607.18 439.06H678.844V453.82H607.18Z" fill="#ff0000" fill-rule="evenodd"/>
<path transform="matrix(1,0,0,-1,0,595.2)" d="M231.65 431.74H267.53V439.18H231.65Z" fill="#ff0000" fill-rule="evenodd"/>
<path transform="matrix(1,0,0,-1,0,595.2)" d="M392.59 431.74H464.22999V439.18H392.59Z" fill="#ff0000" fill-rule="evenodd"/>
<path transform="matrix(1,0,0,-1,0,595.2)" d="M607.18 431.74H643.06V439.18H607.18Z" fill="#ff0000" fill-rule="evenodd"/>
<path transform="matrix(1,0,0,-1,0,595.2)" d="M750.24 431.74H786.12V439.18H750.24Z" fill="#ff0000" fill-rule="evenodd"/>
<path transform="matrix(1,0,0,-1,0,595.2)" d="M231.65 424.42H267.53V431.86003H231.65Z" fill="#ff0000" fill-rule="evenodd"/>
<path transform="matrix(1,0,0,-1,0,595.2)" d="M392.59 424.42H464.22999V431.86003H392.59Z" fill="#ff0000" fill-rule="evenodd"/>
<path transform="matrix(1,0,0,-1,0,595.2)" d="M607.18 424.42H643.06V431.86003H607.18Z" fill="#ff0000" fill-rule="evenodd"/>
<path transform="matrix(1,0,0,-1,0,595.2)" d="M750.24 424.42H786.12V431.86003H750.24Z" fill="#ff0000" fill-rule="evenodd"/>
<path transform="matrix(1,0,0,-1,0,595.2)" d="M86.664 409.78H122.54401V424.54H86.664Z" fill="#ffc000" fill-rule="evenodd"/>
<path transform="matrix(1,0,0,-1,0,595.2)" d="M195.89 409.78H231.77V424.54H195.89Z" fill="#ffc000" fill-rule="evenodd"/>
<path transform="matrix(1,0,0,-1,0,595.2)" d="M392.59 409.78H464.22999V424.54H392.59Z" fill="#ff0000" fill-rule="evenodd"/>
<path transform="matrix(1,0,0,-1,0,595.2)" d="M607.18 409.78H643.06V424.54H607.18Z" fill="#ff0000" fill-rule="evenodd"/>
<path transform="matrix(1,0,0,-1,0,595.2)" d="M86.664 395.11H122.54401V409.89399H86.664Z" fill="#ffffff" fill-rule="evenodd"/>
<path transform="matrix(1,0,0,-1,0,595.2)" d="M195.89 395.11H231.77V409.89399H195.89Z" fill="#ff0000" fill-rule="evenodd"/>
<path transform="matrix(1,0,0,-1,0,595.2)" d="M392.59 395.11H464.22999V409.89399H392.59Z" fill="#ff0000" fill-rule="evenodd"/>
<path transform="matrix(1,0,0,-1,0,595.2)" d="M607.18 395.11H678.844V409.89399H607.18Z" fill="#ff0000" fill-rule="evenodd"/>
<path transform="matrix(1,0,0,-1,0,595.2)" d="M750.24 395.11H786.12V409.89399H750.24Z" fill="#ff0000" fill-rule="evenodd"/>
<path transform="matrix(1,0,0,-1,0,595.2)" d="M195.89 387.79H231.77V395.23H195.89Z" fill="#ff0000" fill-rule="evenodd"/>
<path transform="matrix(1,0,0,-1,0,595.2)" d="M428.35 387.79H464.23V395.23H428.35Z" fill="#ff0000" fill-rule="evenodd"/>
<path transform="matrix(1,0,0,-1,0,595.2)" d="M607.18 387.79H678.844V395.23H607.18Z" fill="#ff0000" fill-rule="evenodd"/>
<path transform="matrix(1,0,0,-1,0,595.2)" d="M750.24 387.79H786.12V395.23H750.24Z" fill="#ffc000" fill-rule="evenodd"/>
<path transform="matrix(1,0,0,-1,0,595.2)" d="M195.89 380.47H231.77V387.91H195.89Z" fill="#ff0000" fill-rule="evenodd"/>
<path transform="matrix(1,0,0,-1,0,595.2)" d="M428.35 380.47H464.23V387.91H428.35Z" fill="#ff0000" fill-rule="evenodd"/>
<path transform="matrix(1,0,0,-1,0,595.2)" d="M607.18 380.47H678.844V387.91H607.18Z" fill="#ff0000" fill-rule="evenodd"/>
<path transform="matrix(1,0,0,-1,0,595.2)" d="M750.24 380.47H786.12V387.91H750.24Z" fill="#ffc000" fill-rule="evenodd"/>
<path transform="matrix(1,0,0,-1,0,595.2)" d="M195.89 373.15H231.77V380.59H195.89Z" fill="#ff0000" fill-rule="evenodd"/>
<path transform="matrix(1,0,0,-1,0,595.2)" d="M428.35 373.15H464.23V380.59H428.35Z" fill="#ff0000" fill-rule="evenodd"/>
<path transform="matrix(1,0,0,-1,0,595.2)" d="M607.18 373.15H678.844V380.59H607.18Z" fill="#ff0000" fill-rule="evenodd"/>
<path transform="matrix(1,0,0,-1,0,595.2)" d="M750.24 373.15H786.12V380.59H750.24Z" fill="#ff0000" fill-rule="evenodd"/>
<path transform="matrix(1,0,0,-1,0,595.2)" d="M195.89 365.83H231.77V373.27H195.89Z" fill="#ff0000" fill-rule="evenodd"/>
<path transform="matrix(1,0,0,-1,0,595.2)" d="M428.35 365.83H464.23V373.27H428.35Z" fill="#ff0000" fill-rule="evenodd"/>
<path transform="matrix(1,0,0,-1,0,595.2)" d="M607.18 365.83H678.844V373.27H607.18Z" fill="#ff0000" fill-rule="evenodd"/>
<path transform="matrix(1,0,0,-1,0,595.2)" d="M750.24 365.83H786.12V373.27H750.24Z" fill="#ff0000" fill-rule="evenodd"/>
<path transform="matrix(1,0,0,-1,0,595.2)" d="M392.59 358.51H464.22999V365.95H392.59Z" fill="#ff0000" fill-rule="evenodd"/>
<path transform="matrix(1,0,0,-1,0,595.2)" d="M607.18 358.51H678.844V365.95H607.18Z" fill="#ff0000" fill-rule="evenodd"/>
<path transform="matrix(1,0,0,-1,0,595.2)" d="M750.24 358.51H786.12V365.95H750.24Z" fill="#ff0000" fill-rule="evenodd"/>
<path transform="matrix(1,0,0,-1,0,595.2)" d="M392.59 351.19H464.22999V358.63H392.59Z" fill="#ff0000" fill-rule="evenodd"/>
<path transform="matrix(1,0,0,-1,0,595.2)" d="M607.18 351.19H678.844V358.63H607.18Z" fill="#ff0000" fill-rule="evenodd"/>
<path transform="matrix(1,0,0,-1,0,595.2)" d="M750.24 351.19H786.12V358.63H750.24Z" fill="#ff0000" fill-rule="evenodd"/>
<path transform="matrix(1,0,0,-1,0,595.2)" d="M86.664 336.55H122.54401V351.31H86.664Z" fill="#ffc000" fill-rule="evenodd"/>
<path transform="matrix(1,0,0,-1,0,595.2)" d="M231.65 336.55H267.53V351.31H231.65Z" fill="#ff0000" fill-rule="evenodd"/>
<path transform="matrix(1,0,0,-1,0,595.2)" d="M392.59 336.55H464.22999V351.31H392.59Z" fill="#ff0000" fill-rule="evenodd"/>
<path transform="matrix(1,0,0,-1,0,595.2)" d="M607.18 336.55H678.844V351.31H607.18Z" fill="#ff0000" fill-rule="evenodd"/>
<path transform="matrix(1,0,0,-1,0,595.2)" d="M195.89 329.23H231.77V336.67H195.89Z" fill="#ff0000" fill-rule="evenodd"/>
<path transform="matrix(1,0,0,-1,0,595.2)" d="M231.65 329.23H267.53V336.67H231.65Z" fill="#92d050" fill-rule="evenodd"/>
<path transform="matrix(1,0,0,-1,0,595.2)" d="M392.59 329.23H464.22999V336.67H392.59Z" fill="#ff0000" fill-rule="evenodd"/>
<path transform="matrix(1,0,0,-1,0,595.2)" d="M607.18 329.23H643.06V336.67H607.18Z" fill="#ff0000" fill-rule="evenodd"/>
<path transform="matrix(1,0,0,-1,0,595.2)" d="M195.89 321.91H231.77V329.35H195.89Z" fill="#ff0000" fill-rule="evenodd"/>
<path transform="matrix(1,0,0,-1,0,595.2)" d="M231.65 321.91H267.53V329.35H231.65Z" fill="#92d050" fill-rule="evenodd"/>
<path transform="matrix(1,0,0,-1,0,595.2)" d="M392.59 321.91H464.22999V329.35H392.59Z" fill="#ff0000" fill-rule="evenodd"/>
<path transform="matrix(1,0,0,-1,0,595.2)" d="M607.18 321.91H643.06V329.35H607.18Z" fill="#ff0000" fill-rule="evenodd"/>
<path transform="matrix(1,0,0,-1,0,595.2)" d="M86.664 307.27H122.54401V322.03H86.664Z" fill="#ffc000" fill-rule="evenodd"/>
<path transform="matrix(1,0,0,-1,0,595.2)" d="M231.65 307.27H267.53V322.03H231.65Z" fill="#ff0000" fill-rule="evenodd"/>
<path transform="matrix(1,0,0,-1,0,595.2)" d="M392.59 307.27H428.47V322.03H392.59Z" fill="#ff0000" fill-rule="evenodd"/>
<path transform="matrix(1,0,0,-1,0,595.2)" d="M607.18 307.27H678.844V322.03H607.18Z" fill="#ff0000" fill-rule="evenodd"/>
<path transform="matrix(1,0,0,-1,0,595.2)" d="M86.664 292.63H122.54401V307.39H86.664Z" fill="#92d050" fill-rule="evenodd"/>
<path transform="matrix(1,0,0,-1,0,595.2)" d="M392.59 292.63H464.22999V307.39H392.59Z" fill="#ff0000" fill-rule="evenodd"/>
<path transform="matrix(1,0,0,-1,0,595.2)" d="M607.18 292.63H678.844V307.39H607.18Z" fill="#ff0000" fill-rule="evenodd"/>
<path transform="matrix(1,0,0,-1,0,595.2)" d="M86.664 277.97H122.54401V292.754H86.664Z" fill="#ff0000" fill-rule="evenodd"/>
<path transform="matrix(1,0,0,-1,0,595.2)" d="M392.59 277.97H464.22999V292.754H392.59Z" fill="#ff0000" fill-rule="evenodd"/>
<path transform="matrix(1,0,0,-1,0,595.2)" d="M607.18 277.97H643.06V292.754H607.18Z" fill="#ff0000" fill-rule="evenodd"/>
<path transform="matrix(1,0,0,-1,0,595.2)" d="M750.24 277.97H786.12V292.754H750.24Z" fill="#ffffff" fill-rule="evenodd"/>
<path transform="matrix(1,0,0,-1,0,595.2)" d="M86.664 263.33H122.54401V278.09H86.664Z" fill="#ff0000" fill-rule="evenodd"/>
<path transform="matrix(1,0,0,-1,0,595.2)" d="M392.59 263.33H464.22999V278.09H392.59Z" fill="#ff0000" fill-rule="evenodd"/>
<path transform="matrix(1,0,0,-1,0,595.2)" d="M607.18 263.33H643.06V278.09H607.18Z" fill="#ff0000" fill-rule="evenodd"/>
<path transform="matrix(1,0,0,-1,0,595.2)" d="M86.664 248.69H122.54401V263.45H86.664Z" fill="#ff0000" fill-rule="evenodd"/>
<path transform="matrix(1,0,0,-1,0,595.2)" d="M195.89 248.69H267.53V263.45H195.89Z" fill="#ff0000" fill-rule="evenodd"/>
<path transform="matrix(1,0,0,-1,0,595.2)" d="M392.59 248.69H464.22999V263.45H392.59Z" fill="#ff0000" fill-rule="evenodd"/>
<path transform="matrix(1,0,0,-1,0,595.2)" d="M607.18 248.69H678.844V263.45H607.18Z" fill="#ff0000" fill-rule="evenodd"/>
<path transform="matrix(1,0,0,-1,0,595.2)" d="M607.18 241.37H643.06V248.81H607.18Z" fill="#ffffff" fill-rule="evenodd"/>
<path transform="matrix(1,0,0,-1,0,595.2)" d="M642.94 241.37H678.844V248.81H642.94Z" fill="#ff0000" fill-rule="evenodd"/>
<path transform="matrix(1,0,0,-1,0,595.2)" d="M750.24 241.37H786.12V248.81H750.24Z" fill="#ff0000" fill-rule="evenodd"/>
<path transform="matrix(1,0,0,-1,0,595.2)" d="M607.18 234.05H643.06V241.49H607.18Z" fill="#ffffff" fill-rule="evenodd"/>
<path transform="matrix(1,0,0,-1,0,595.2)" d="M642.94 234.05H678.844V241.49H642.94Z" fill="#ff0000" fill-rule="evenodd"/>
<path transform="matrix(1,0,0,-1,0,595.2)" d="M750.24 234.05H786.12V241.49H750.24Z" fill="#ff0000" fill-rule="evenodd"/>
<path transform="matrix(1,0,0,-1,0,595.2)" d="M86.664 219.41H122.54401V234.17H86.664Z" fill="#ff0000" fill-rule="evenodd"/>
<path transform="matrix(1,0,0,-1,0,595.2)" d="M195.89 219.41H231.77V234.17H195.89Z" fill="#ff0000" fill-rule="evenodd"/>
<path transform="matrix(1,0,0,-1,0,595.2)" d="M642.94 219.41H678.844V234.17H642.94Z" fill="#ff0000" fill-rule="evenodd"/>
<path transform="matrix(1,0,0,-1,0,595.2)" d="M231.65 197.45H267.53V204.89H231.65Z" fill="#ffc000" fill-rule="evenodd"/>
<path transform="matrix(1,0,0,-1,0,595.2)" d="M231.65 190.13H267.53V197.57H231.65Z" fill="#ffc000" fill-rule="evenodd"/>
<path transform="matrix(1,0,0,-1,0,595.2)" d="M86.664 146.18H122.54401V160.93999H86.664Z" fill="#ff0000" fill-rule="evenodd"/>
<path transform="matrix(1,0,0,-1,0,595.2)" d="M86.664 87.624H122.54401V131.664H86.664Z" fill="#ff0000" fill-rule="evenodd"/>
<path transform="matrix(1,0,0,-1,0,595.2)" d="M140.3 65.64H213.884V73.104H140.3Z" fill="#ff0000" fill-rule="evenodd"/>
<path transform="matrix(1,0,0,-1,0,595.2)" d="M213.77 65.64H249.65001V73.104H213.77Z" fill="#ffffff" fill-rule="evenodd"/>
<path transform="matrix(1,0,0,-1,0,595.2)" d="M249.53 65.64H285.41V73.104H249.53Z" fill="#ffc000" fill-rule="evenodd"/>
<path transform="matrix(1,0,0,-1,0,595.2)" d="M321.05 65.64H356.95399V73.104H321.05Z" fill="#92d050" fill-rule="evenodd"/>
<path transform="matrix(1,0,0,-1,0,595.2)" d="M499.87 65.64H535.774V73.104H499.87Z" fill="#ff0000" fill-rule="evenodd"/>
<path transform="matrix(1,0,0,-1,0,595.2)" d="M535.66 65.64H571.54V73.104H535.66Z" fill="#ffc000" fill-rule="evenodd"/>
<path transform="matrix(1,0,0,-1,0,595.2)" d="M571.42 65.64H607.3V73.104H571.42Z" fill="#ff0000" fill-rule="evenodd"/>
<path transform="matrix(1,0,0,-1,0,595.2)" d="M642.94 65.64H678.844V73.104H642.94Z" fill="#ff0000" fill-rule="evenodd"/>
<path transform="matrix(1,0,0,-1,0,595.2)" d="M678.72 65.64H714.6V73.104H678.72Z" fill="#92d050" fill-rule="evenodd"/>
<path transform="matrix(1,0,0,-1,0,595.2)" d="M140.3 58.32H213.884V65.76H140.3Z" fill="#ff0000" fill-rule="evenodd"/>
<path transform="matrix(1,0,0,-1,0,595.2)" d="M213.77 58.32H249.65001V65.76H213.77Z" fill="#ffffff" fill-rule="evenodd"/>
<path transform="matrix(1,0,0,-1,0,595.2)" d="M249.53 58.32H285.41V65.76H249.53Z" fill="#ffc000" fill-rule="evenodd"/>
<path transform="matrix(1,0,0,-1,0,595.2)" d="M321.05 58.32H356.95399V65.76H321.05Z" fill="#92d050" fill-rule="evenodd"/>
<path transform="matrix(1,0,0,-1,0,595.2)" d="M499.87 58.32H535.774V65.76H499.87Z" fill="#ff0000" fill-rule="evenodd"/>
<path transform="matrix(1,0,0,-1,0,595.2)" d="M535.66 58.32H571.54V65.76H535.66Z" fill="#ffc000" fill-rule="evenodd"/>
<path transform="matrix(1,0,0,-1,0,595.2)" d="M571.42 58.32H607.3V65.76H571.42Z" fill="#ff0000" fill-rule="evenodd"/>
<path transform="matrix(1,0,0,-1,0,595.2)" d="M642.94 58.32H678.844V65.76H642.94Z" fill="#ff0000" fill-rule="evenodd"/>
<path transform="matrix(1,0,0,-1,0,595.2)" d="M678.72 58.32H714.6V65.76H678.72Z" fill="#92d050" fill-rule="evenodd"/>
</g>
<g clip-path="url(#clip_2)">
<text xml:space="preserve" transform="matrix(1 0 -0 1 0 595.2)" font-size="3.48" font-family="Yu Gothic" font-weight="bold"><tspan y="-65.04" x="153.98 156.2594 158.90073 161.05832 163.0976">SG#22</tspan></text>
</g>
<g clip-path="url(#clip_3)">
<text xml:space="preserve" transform="matrix(1 0 -0 1 0 595.2)" font-size="3.48" font-family="Yu Gothic" font-weight="bold"><tspan y="-504.34" x="152.66 156.14 159.62 162.85987">&#x30b5;&#x30f3;&#x30c0;&#x30fc;</tspan></text>
</g>
<g clip-path="url(#clip_4)">
<text xml:space="preserve" transform="matrix(1 0 -0 1 0 595.2)" font-size="3.48" font-family="Yu Gothic" font-weight="bold"><tspan y="-504.34" x="192.65 195.29 197.56111">OSP</tspan></text>
</g>
<g clip-path="url(#clip_5)">
<text xml:space="preserve" transform="matrix(1 0 -0 1 0 595.2)" font-size="3.48" font-family="Yu Gothic" font-weight="bold"><tspan y="-504.34" x="223.85 226.24773 228.52713 230.6882 232.8458 234.88507 236.92087">VSF#14M</tspan></text>
</g>
<g clip-path="url(#clip_6)">
<text xml:space="preserve" transform="matrix(1 0 -0 1 0 595.2)" font-size="3.48" font-family="Yu Gothic" font-weight="bold"><tspan y="-504.34" x="405.43 407.946 410.22193 412.37953 414.4188">BZ#18</tspan></text>
</g>
<g clip-path="url(#clip_7)">
<text xml:space="preserve" transform="matrix(1 0 -0 1 0 595.2)" font-size="3.48" font-family="Yu Gothic" font-weight="bold"><tspan y="-504.34" x="262.37 264.88603 267.16194 269.31953 271.3588">BZ#20</tspan></text>
</g>
<g clip-path="url(#clip_8)">
<text xml:space="preserve" transform="matrix(1 0 -0 1 0 595.2)" font-size="3.48" font-family="Yu Gothic" font-weight="bold"><tspan y="-108.98" x="99.384 101.6634 104.30472 106.46232 108.5016">SG#18</tspan></text>
</g>
<g clip-path="url(#clip_9)">
<text xml:space="preserve" transform="matrix(1 0 -0 1 0 595.2)" font-size="3.48" font-family="Yu Gothic" font-weight="bold"><tspan y="-94.344" x="98.184 100.82532 103.11516 105.620769 107.778369 109.81765">UTK#16</tspan></text>
</g>
<g clip-path="url(#clip_10)">
<text xml:space="preserve" transform="matrix(1 0 -0 1 0 595.2)" font-size="3.48" font-family="Yu Gothic" font-weight="bold"><tspan y="-372.55" x="399.91 402.19984 404.5871 406.7447 408.78746 410.82325 412.26048 414.29627 416.33207 418.36787 420.40367">TY#22(150g)</tspan></text>
</g>
<g clip-path="url(#clip_11)">
<text xml:space="preserve" transform="matrix(1 0 -0 1 0 595.2)" font-size="3.48" font-family="Yu Gothic" font-weight="bold"><tspan y="-350.59" x="403.99 406.27983 408.7854 411.54154 413.69914 415.7384">TBH#18</tspan></text>
</g>
<g clip-path="url(#clip_12)">
<text xml:space="preserve" transform="matrix(1 0 -0 1 0 595.2)" font-size="3.48" font-family="Yu Gothic" font-weight="bold"><tspan y="-240.77" x="760.8 763.44137 766.79959 768.95718 770.9964 773.03219">DM#24W</tspan></text>
</g>
<g clip-path="url(#clip_13)">
<text xml:space="preserve" transform="matrix(1 0 -0 1 0 595.2)" font-size="3.48" font-family="Yu Gothic" font-weight="bold"><tspan y="-196.85" x="759.84 763.32 766.8 770.27999 773.75997">&#x30d2;&#x30ab;&#x30ea;&#x30c3;&#x30c1;</tspan></text>
</g>
<g clip-path="url(#clip_14)">
<text xml:space="preserve" transform="matrix(1 0 -0 1 0 595.2)" font-size="3.48" font-family="Yu Gothic" font-weight="bold"><tspan y="-504.34" x="442.87 445.39 447.67689">BZN</tspan></text>
</g>
<g clip-path="url(#clip_15)">
<text xml:space="preserve" transform="matrix(1 0 -0 1 0 595.2)" font-size="3.48" font-family="Yu Gothic" font-weight="bold"><tspan y="-504.34" x="479.11 481.27107 483.54698">LEE</tspan></text>
</g>
<g clip-path="url(#clip_16)">
<text xml:space="preserve" transform="matrix(1 0 -0 1 0 595.2)" font-size="3.48" font-family="Yu Gothic" font-weight="bold"><tspan y="-504.34" x="512.74 515.1377 517.4171 519.5747 521.61398">YS#10</tspan></text>
</g>
<g clip-path="url(#clip_17)">
<text xml:space="preserve" transform="matrix(1 0 -0 1 0 595.2)" font-size="3.48" font-family="Yu Gothic" font-weight="bold"><tspan y="-270.05" x="752.04 755.3982 758.7564 760.7922 762.94979 764.989 767.0248 770.50479 773.98477 775.422 777.45779 779.4935 781.5293 783.56509">MM3#10&#x3082;&#x307f;(280g)</tspan></text>
</g>
<g clip-path="url(#clip_18)">
<text xml:space="preserve" transform="matrix(1 0 -0 1 0 595.2)" font-size="3.48" font-family="Yu Gothic" font-weight="bold"><tspan y="-343.27" x="757.56 760.9182 764.2764 766.3122 768.4698 770.50906 772.5448 776.0248">MM3#14&#x3082;&#x307f;</tspan></text>
</g>
<g clip-path="url(#clip_19)">
<text xml:space="preserve" transform="matrix(1 0 -0 1 0 595.2)" font-size="3.48" font-family="Yu Gothic" font-weight="bold"><tspan y="-401.86" x="89.424 92.90401 96.26221 98.41981 100.45909 102.494899 105.9749 109.4549 110.892139 112.92794 114.963748 116.99955 119.035358">&#x7279;M#10&#x3082;&#x307f;(300g)</tspan></text>
</g>
<g clip-path="url(#clip_20)">
<text xml:space="preserve" transform="matrix(1 0 -0 1 0 595.2)" font-size="3.48" font-family="Yu Gothic" font-weight="bold"><tspan y="-301.87" x="97.344 100.10016 102.37608 104.53368 106.57297 108.60877">HZ#24W</tspan></text>
<text xml:space="preserve" transform="matrix(1 0 -0 1 0 595.2)" font-size="3.48" font-family="Yu Gothic" font-weight="bold"><tspan y="-295.99" x="99.024 101.78016 104.05608 106.213687 108.25297">HZ#22</tspan></text>
</g>
<g clip-path="url(#clip_21)">
<text xml:space="preserve" transform="matrix(1 0 -0 1 0 595.2)" font-size="3.48" font-family="Yu Gothic" font-weight="bold"><tspan y="-313.99" x="89.424 92.90401 96.26221 98.41981 100.45909 102.494899 105.9749 109.4549 110.892139 112.92794 114.963748 116.99955 119.035358">&#x7279;M#10&#x3082;&#x307f;(180g)</tspan></text>
</g>
<g clip-path="url(#clip_22)">
<text xml:space="preserve" transform="matrix(1 0 -0 1 0 595.2)" font-size="3.48" font-family="Yu Gothic" font-weight="bold"><tspan y="-335.95" x="615.1 618.57998 620.73757 622.7768 624.81259 626.2498 628.2856 630.32138 632.3571 634.3929">&#x6771;#24(140g)</tspan></text>
</g>
<g clip-path="url(#clip_23)">
<text xml:space="preserve" transform="matrix(1 0 -0 1 0 595.2)" font-size="3.48" font-family="Yu Gothic" font-weight="bold"><tspan y="-504.34" x="297.05 299.4477 301.7271 303.8882 306.0458 308.08509">VSF#18</tspan></text>
</g>
<g clip-path="url(#clip_24)">
<text xml:space="preserve" transform="matrix(1 0 -0 1 0 595.2)" font-size="3.48" font-family="Yu Gothic" font-weight="bold"><tspan y="-460.42" x="208.85 211.12941 213.40882 215.5664 217.60569">SS#20</tspan></text>
</g>
<g clip-path="url(#clip_25)">
<text xml:space="preserve" transform="matrix(1 0 -0 1 0 595.2)" font-size="3.48" font-family="Yu Gothic" font-weight="bold"><tspan y="-445.78" x="209.21 212.5682 214.9694 217.127">MP#6</tspan></text>
</g>
<g clip-path="url(#clip_26)">
<text xml:space="preserve" transform="matrix(1 0 -0 1 0 595.2)" font-size="3.48" font-family="Yu Gothic" font-weight="bold"><tspan y="-394.51" x="203.21 205.49985 207.88713 210.04473 212.08748 214.12328 215.56052 217.59632 219.63211 221.66791 223.7037">TY#22(120g)</tspan></text>
</g>
<g clip-path="url(#clip_27)">
<text xml:space="preserve" transform="matrix(1 0 -0 1 0 595.2)" font-size="3.48" font-family="Yu Gothic" font-weight="bold"><tspan y="-504.34" x="332.81 335.2077 337.48713 339.64823 341.80583 343.8451">VSF#22</tspan></text>
</g>
<g clip-path="url(#clip_28)">
<text xml:space="preserve" transform="matrix(1 0 -0 1 0 595.2)" font-size="3.48" font-family="Yu Gothic" font-weight="bold"><tspan y="-431.14" x="208.73 211.01984 213.40712 215.56472 217.60747">TY#18</tspan></text>
</g>
<g clip-path="url(#clip_29)">
<text xml:space="preserve" transform="matrix(1 0 -0 1 0 595.2)" font-size="3.48" font-family="Yu Gothic" font-weight="bold"><tspan y="-504.34" x="369.67 372.18605 374.46195 376.61955 378.6588">BZ#22</tspan></text>
</g>
<g clip-path="url(#clip_30)">
<text xml:space="preserve" transform="matrix(1 0 -0 1 0 595.2)" font-size="3.48" font-family="Yu Gothic" font-weight="bold"><tspan y="-504.34" x="92.184 94.47384 97.10472 100.46292 102.62052 104.659809 106.69561 108.13284 110.16865 112.20445 114.24026 116.27606">T&#x0026;M#18(215g)</tspan></text>
</g>
<g clip-path="url(#clip_31)">
<text xml:space="preserve" transform="matrix(1 0 -0 1 0 595.2)" font-size="3.48" font-family="Yu Gothic" font-weight="bold"><tspan y="-492.22" x="99.144 101.54172 103.82111 105.98219 108.13979">VSF#6</tspan></text>
<text xml:space="preserve" transform="matrix(1 0 -0 1 0 595.2)" font-size="3.48" font-family="Yu Gothic" font-weight="bold"><tspan y="-486.34" x="91.824 94.11384 96.74472 100.10292 102.26052 104.299808 106.33561 107.77284 109.80865 111.84445 113.88026 115.91606">T&#x0026;M#18(125g)</tspan></text>
</g>
<g clip-path="url(#clip_32)">
<text xml:space="preserve" transform="matrix(1 0 -0 1 0 595.2)" font-size="3.48" font-family="Yu Gothic" font-weight="bold"><tspan y="-475.06" x="95.544 96.98472 99.13536 101.29993 103.45753 105.49681 107.532619 111.01262">Jun#18&#x3082;&#x307f;</tspan></text>
</g>
<g clip-path="url(#clip_33)">
<text xml:space="preserve" transform="matrix(1 0 -0 1 0 595.2)" font-size="3.48" font-family="Yu Gothic" font-weight="bold"><tspan y="-460.42" x="94.104 95.544719 97.69536 99.859928 102.017528 105.37921 108.859218 112.33922">Jun#&#x30a6;&#x30a4;&#x30f3;&#x30b0;</tspan></text>
</g>
<g clip-path="url(#clip_34)">
<text xml:space="preserve" transform="matrix(1 0 -0 1 0 595.2)" font-size="3.48" font-family="Yu Gothic" font-weight="bold"><tspan y="-445.78" x="98.784 100.8198 102.855609 104.89141 107.04901 109.088298">013#12</tspan></text>
</g>
<g clip-path="url(#clip_35)">
<text xml:space="preserve" transform="matrix(1 0 -0 1 0 595.2)" font-size="3.48" font-family="Yu Gothic" font-weight="bold"><tspan y="-431.14" x="98.784 100.8198 102.855609 104.89141 107.04901 109.088298">013#14</tspan></text>
</g>
<g clip-path="url(#clip_36)">
<text xml:space="preserve" transform="matrix(1 0 -0 1 0 595.2)" font-size="3.48" font-family="Yu Gothic" font-weight="bold"><tspan y="-416.5" x="98.784 100.8198 102.855609 104.89141 107.04901 109.088298">013#10</tspan></text>
</g>
<g clip-path="url(#clip_37)">
<text xml:space="preserve" transform="matrix(1 0 -0 1 0 595.2)" font-size="3.48" font-family="Yu Gothic" font-weight="bold"><tspan y="-394.51" x="235.73 239.0882 241.48592 243.52172 245.6793 247.71858 249.75438 253.11258 254.54982 256.5856 258.6214 260.6572 262.693">MA1#14M(150g)</tspan></text>
</g>
<g clip-path="url(#clip_38)">
<text xml:space="preserve" transform="matrix(1 0 -0 1 0 595.2)" font-size="3.48" font-family="Yu Gothic" font-weight="bold"><tspan y="-460.42" x="244.61 246.8894 249.16881 251.3264 253.36568">SS#18</tspan></text>
</g>
<g clip-path="url(#clip_39)">
<text xml:space="preserve" transform="matrix(1 0 -0 1 0 595.2)" font-size="3.48" font-family="Yu Gothic" font-weight="bold"><tspan y="-445.78" x="244.01 247.3682 249.7694 251.92699 253.96627">MP#20</tspan></text>
</g>
<g clip-path="url(#clip_40)">
<text xml:space="preserve" transform="matrix(1 0 -0 1 0 595.2)" font-size="3.48" font-family="Yu Gothic" font-weight="bold"><tspan y="-431.14" x="242.33 245.6882 248.0894 250.247 252.28627 254.32207">MP#14M</tspan></text>
</g>
<g clip-path="url(#clip_41)">
<text xml:space="preserve" transform="matrix(1 0 -0 1 0 595.2)" font-size="3.48" font-family="Yu Gothic" font-weight="bold"><tspan y="-416.5" x="248.21 249.28997">IK</tspan></text>
</g>
<g clip-path="url(#clip_42)">
<text xml:space="preserve" transform="matrix(1 0 -0 1 0 595.2)" font-size="3.48" font-family="Yu Gothic" font-weight="bold"><tspan y="-343.27" x="89.424 92.90401 96.26221 98.41981 100.45909 102.494899 105.9749 109.4549 110.892139 112.92794 114.963748 116.99955 119.035358">&#x7279;M#10&#x3082;&#x307f;(200g)</tspan></text>
</g>
<g clip-path="url(#clip_43)">
<text xml:space="preserve" transform="matrix(1 0 -0 1 0 595.2)" font-size="3.48" font-family="Yu Gothic" font-weight="bold"><tspan y="-416.5" x="207.17 209.45984 211.84712 214.00472 216.04747 218.08327">TY#12W</tspan></text>
</g>
<g clip-path="url(#clip_44)">
<text xml:space="preserve" transform="matrix(1 0 -0 1 0 595.2)" font-size="3.48" font-family="Yu Gothic" font-weight="bold"><tspan y="-350.59" x="200.45 202.73984 205.0088 207.41 209.5676 211.60688 213.64267 216.87908 218.31632 220.35211 222.38791 224.4237 226.4595">TTR#18W(150g)</tspan></text>
</g>
<g clip-path="url(#clip_45)">
<text xml:space="preserve" transform="matrix(1 0 -0 1 0 595.2)" font-size="3.48" font-family="Yu Gothic" font-weight="bold"><tspan y="-328.63" x="96.864 100.344 103.7022 105.8598 107.899089 109.93489">&#x7279;M#16W</tspan></text>
</g>
<g clip-path="url(#clip_46)">
<text xml:space="preserve" transform="matrix(1 0 -0 1 0 595.2)" font-size="3.48" font-family="Yu Gothic" font-weight="bold"><tspan y="-372.55" x="94.944 98.424 101.7822 103.939807 105.97909 108.01489 111.494899">&#x7279;M#12&#x3082;&#x307f;</tspan></text>
</g>
<g clip-path="url(#clip_47)">
<text xml:space="preserve" transform="matrix(1 0 -0 1 0 595.2)" font-size="3.48" font-family="Yu Gothic" font-weight="bold"><tspan y="-123.62" x="99.384 101.6634 104.30472 106.46232 108.5016">SG#20</tspan></text>
</g>
<g clip-path="url(#clip_48)">
<text xml:space="preserve" transform="matrix(1 0 -0 1 0 595.2)" font-size="3.48" font-family="Yu Gothic" font-weight="bold"><tspan y="-255.41" x="211.61 214.12998">KD</tspan></text>
</g>
<g clip-path="url(#clip_49)">
<text xml:space="preserve" transform="matrix(1 0 -0 1 0 595.2)" font-size="3.48" font-family="Yu Gothic" font-weight="bold"><tspan y="-255.41" x="98.184 100.82532 103.11516 105.620769 107.778369 109.81765">UTK#22</tspan></text>
</g>
<g clip-path="url(#clip_50)">
<text xml:space="preserve" transform="matrix(1 0 -0 1 0 595.2)" font-size="3.48" font-family="Yu Gothic" font-weight="bold"><tspan y="-277.01" x="99.024 101.78016 104.05608 106.213687 108.25297">HZ#24</tspan></text>
</g>
<g clip-path="url(#clip_51)">
<text xml:space="preserve" transform="matrix(1 0 -0 1 0 595.2)" font-size="3.24" font-family="Yu Gothic" font-weight="bold"><tspan y="-240.89" x="88.704 91.820888 93.97872 96.25645 98.2944 101.41452 104.65452 107.894519 111.134517 112.44996 114.2514 116.05285 117.854297 119.77237">MTR#&#x30a6;&#x30a4;&#x30f3;&#x30b0;(200g)</tspan></text>
</g>
<g clip-path="url(#clip_52)">
<text xml:space="preserve" transform="matrix(1 0 -0 1 0 595.2)" font-size="3.24" font-family="Yu Gothic" font-weight="bold"><tspan y="-226.25" x="88.704 91.820888 93.97872 96.25645 98.2944 101.41452 104.65452 107.894519 111.134517 112.44996 114.2514 116.05285 117.854297 119.77237">MTR#&#x30a6;&#x30a4;&#x30f3;&#x30b0;(150g)</tspan></text>
</g>
<g clip-path="url(#clip_53)">
<text xml:space="preserve" transform="matrix(1 0 -0 1 0 595.2)" font-size="3.48" font-family="Yu Gothic" font-weight="bold"><tspan y="-211.49" x="101.54 105.020008">&#x65b0;&#x6b4c;</tspan></text>
</g>
<g clip-path="url(#clip_54)">
<text xml:space="preserve" transform="matrix(1 0 -0 1 0 595.2)" font-size="3.48" font-family="Yu Gothic" font-weight="bold"><tspan y="-196.85" x="99.024 102.3822 104.77992 106.81573 108.97333">MA1#6</tspan></text>
</g>
<g clip-path="url(#clip_55)">
<text xml:space="preserve" transform="matrix(1 0 -0 1 0 595.2)" font-size="3.48" font-family="Yu Gothic" font-weight="bold"><tspan y="-182.21" x="94.584 98.064 101.54401 104.90569 108.3857 111.8657">&#x30a8;&#x30b9;&#x30d7;&#x30ec;&#x30c3;&#x30bd;</tspan></text>
</g>
<g clip-path="url(#clip_56)">
<text xml:space="preserve" transform="matrix(1 0 -0 1 0 595.2)" font-size="3.48" font-family="Yu Gothic" font-weight="bold"><tspan y="-167.54" x="99.744 103.22401 106.70401">&#x5927;&#x541f;&#x91b8;</tspan></text>
</g>
<g clip-path="url(#clip_57)">
<text xml:space="preserve" transform="matrix(1 0 -0 1 0 595.2)" font-size="3.48" font-family="Yu Gothic" font-weight="bold"><tspan y="-152.9" x="98.064 101.54401 105.02401 108.50401">&#x4e00;&#x671f;&#x4e00;&#x4f1a;</tspan></text>
</g>
<g clip-path="url(#clip_58)">
<text xml:space="preserve" transform="matrix(1 0 -0 1 0 595.2)" font-size="3.48" font-family="Yu Gothic" font-weight="bold"><tspan y="-372.55" x="207.17 209.45984 211.84712 214.00472 216.04747 218.08327">TY#16W</tspan></text>
</g>
<g clip-path="url(#clip_59)">
<text xml:space="preserve" transform="matrix(1 0 -0 1 0 595.2)" font-size="3.48" font-family="Yu Gothic" font-weight="bold"><tspan y="-284.69" x="205.97 208.25984 210.52881 212.93001 215.0876 217.12688 219.16268">TTR#20W</tspan></text>
</g>
<g clip-path="url(#clip_60)">
<text xml:space="preserve" transform="matrix(1 0 -0 1 0 595.2)" font-size="3.48" font-family="Yu Gothic" font-weight="bold"><tspan y="-328.63" x="198.41 200.69985 202.96881 205.37001 207.5276 209.56688 211.60268 212.56316 216.04315 219.52315 223.00315 226.48314">TTR#18 &#x30b9;&#x30c8;&#x30ec;&#x30fc;&#x30c8;</tspan></text>
</g>
<g clip-path="url(#clip_61)">
<text xml:space="preserve" transform="matrix(1 0 -0 1 0 595.2)" font-size="3.48" font-family="Yu Gothic" font-weight="bold"><tspan y="-138.26" x="98.064 101.54401 105.02401 108.50401">&#x3072;&#x307e;&#x308f;&#x308a;</tspan></text>
</g>
<g clip-path="url(#clip_62)">
<text xml:space="preserve" transform="matrix(1 0 -0 1 0 595.2)" font-size="3.48" font-family="Yu Gothic" font-weight="bold"><tspan y="-306.67" x="200.45 202.73984 205.0088 207.41 209.5676 211.60688 213.64267 216.87908 218.31632 220.35211 222.38791 224.4237 226.4595">TTR#18W(120g)</tspan></text>
</g>
<g clip-path="url(#clip_63)">
<text xml:space="preserve" transform="matrix(1 0 -0 1 0 595.2)" font-size="3.48" font-family="Yu Gothic" font-weight="bold"><tspan y="-270.05" x="202.61 205.25131 208.60951 210.7671 212.80638 214.84218 216.27942 218.31522 220.35102 222.38681 224.4226">DM#10(200g)</tspan></text>
</g>
<g clip-path="url(#clip_64)">
<text xml:space="preserve" transform="matrix(1 0 -0 1 0 595.2)" font-size="3.48" font-family="Yu Gothic" font-weight="bold"><tspan y="-240.77" x="206.93 209.2059 211.84723 214.00482 216.0441 218.0799">EG#12M</tspan></text>
</g>
<g clip-path="url(#clip_65)">
<text xml:space="preserve" transform="matrix(1 0 -0 1 0 595.2)" font-size="3.48" font-family="Yu Gothic" font-weight="bold"><tspan y="-67.584" x="691.08 693.4777 696.1191 698.2767 700.3159">AU#17</tspan></text>
<text xml:space="preserve" transform="matrix(1 0 -0 1 0 595.2)" font-size="3.48" font-family="Yu Gothic" font-weight="bold"><tspan y="-61.68" x="691.08 693.4777 696.1191 698.2767 700.3159">AU#12</tspan></text>
</g>
<g clip-path="url(#clip_66)">
<text xml:space="preserve" transform="matrix(1 0 -0 1 0 595.2)" font-size="3.48" font-family="Yu Gothic" font-weight="bold"><tspan y="-306.67" x="655.9 658.17947 660.4693 662.6269 664.6557">ST#18</tspan></text>
</g>
<g clip-path="url(#clip_67)">
<text xml:space="preserve" transform="matrix(1 0 -0 1 0 595.2)" font-size="3.48" font-family="Yu Gothic" font-weight="bold"><tspan y="-489.7" x="764.88 767.39608 769.6755">KSK</tspan></text>
</g>
<g clip-path="url(#clip_68)">
<text xml:space="preserve" transform="matrix(1 0 -0 1 0 595.2)" font-size="3.48" font-family="Yu Gothic" font-weight="bold"><tspan y="-503.98" x="726.96 729.3577 731.7589 733.9165 735.95578">YP#20</tspan></text>
</g>
<g clip-path="url(#clip_69)">
<text xml:space="preserve" transform="matrix(1 0 -0 1 0 595.2)" font-size="3.48" font-family="Yu Gothic" font-weight="bold"><tspan y="-431.14" x="762 764.3977 766.7954 768.9565 771.1141 773.1533">YAF#20</tspan></text>
</g>
<g clip-path="url(#clip_70)">
<text xml:space="preserve" transform="matrix(1 0 -0 1 0 595.2)" font-size="3.48" font-family="Yu Gothic" font-weight="bold"><tspan y="-504.34" x="548.5 550.8977 553.1771 555.3347 557.37399">YS#18</tspan></text>
</g>
<g clip-path="url(#clip_71)">
<text xml:space="preserve" transform="matrix(1 0 -0 1 0 595.2)" font-size="3.48" font-family="Yu Gothic" font-weight="bold"><tspan y="-504.34" x="584.26 586.6577 588.93716 591.0947 593.134">YS#16</tspan></text>
</g>
<g clip-path="url(#clip_72)">
<text xml:space="preserve" transform="matrix(1 0 -0 1 0 595.2)" font-size="3.48" font-family="Yu Gothic" font-weight="bold"><tspan y="-504.34" x="620.02 622.4177 624.69717 626.85476 628.894">YS#12</tspan></text>
</g>
<g clip-path="url(#clip_73)">
<text xml:space="preserve" transform="matrix(1 0 -0 1 0 595.2)" font-size="3.48" font-family="Yu Gothic" font-weight="bold"><tspan y="-503.98" x="657.1 660.4582 662.50448">Men</tspan></text>
</g>
<g clip-path="url(#clip_74)">
<text xml:space="preserve" transform="matrix(1 0 -0 1 0 595.2)" font-size="3.48" font-family="Yu Gothic" font-weight="bold"><tspan y="-504.34" x="693.48 695.7594 698.1571">SYR</tspan></text>
</g>
<g clip-path="url(#clip_75)">
<text xml:space="preserve" transform="matrix(1 0 -0 1 0 595.2)" font-size="3.48" font-family="Yu Gothic" font-weight="bold"><tspan y="-467.74" x="758.52 761.2762 763.4338 765.473 767.5088 768.94607 770.9818 773.0176 775.05337 777.0891">N#24(130g)</tspan></text>
</g>
<g clip-path="url(#clip_76)">
<text xml:space="preserve" transform="matrix(1 0 -0 1 0 595.2)" font-size="3.48" font-family="Yu Gothic" font-weight="bold"><tspan y="-445.78" x="765.12 767.4 769.68008">TTT</tspan></text>
</g>
<g clip-path="url(#clip_77)">
<text xml:space="preserve" transform="matrix(1 0 -0 1 0 595.2)" font-size="3.48" font-family="Yu Gothic" font-weight="bold"><tspan y="-438.46" x="620.62 624.1 626.25759 628.2968">&#x6771;#18</tspan></text>
</g>
<g clip-path="url(#clip_78)">
<text xml:space="preserve" transform="matrix(1 0 -0 1 0 595.2)" font-size="3.48" font-family="Yu Gothic" font-weight="bold"><tspan y="-453.1" x="655.9 658.17947 660.4693 662.6269 664.6557">ST#16</tspan></text>
</g>
<g clip-path="url(#clip_79)">
<text xml:space="preserve" transform="matrix(1 0 -0 1 0 595.2)" font-size="3.48" font-family="Yu Gothic" font-weight="bold"><tspan y="-423.82" x="655.9 658.17947 660.4693 662.6269 664.6557">ST#12</tspan></text>
</g>
<g clip-path="url(#clip_80)">
<text xml:space="preserve" transform="matrix(1 0 -0 1 0 595.2)" font-size="3.48" font-family="Yu Gothic" font-weight="bold"><tspan y="-416.5" x="764.64 766.92007 769.2001">TTM</tspan></text>
</g>
<g clip-path="url(#clip_81)">
<text xml:space="preserve" transform="matrix(1 0 -0 1 0 595.2)" font-size="3.48" font-family="Yu Gothic" font-weight="bold"><tspan y="-65.04" x="725.04 727.07577 729.1115 731.1473 733.3049 735.3441 737.3799">013#12W</tspan></text>
</g>
<g clip-path="url(#clip_82)">
<text xml:space="preserve" transform="matrix(1 0 -0 1 0 595.2)" font-size="3.48" font-family="Yu Gothic" font-weight="bold"><tspan y="-401.86" x="764.64 767.9982 770.2881">MTT</tspan></text>
</g>
<g clip-path="url(#clip_83)">
<text xml:space="preserve" transform="matrix(1 0 -0 1 0 595.2)" font-size="3.48" font-family="Yu Gothic" font-weight="bold"><tspan y="-387.19" x="765 767.28 769.9255">SGT</tspan></text>
</g>
<g clip-path="url(#clip_84)">
<text xml:space="preserve" transform="matrix(1 0 -0 1 0 595.2)" font-size="3.48" font-family="Yu Gothic" font-weight="bold"><tspan y="-365.23" x="764.88 767.16006 769.8055">SGR</tspan></text>
</g>
<g clip-path="url(#clip_85)">
<text xml:space="preserve" transform="matrix(1 0 -0 1 0 595.2)" font-size="3.48" font-family="Yu Gothic" font-weight="bold"><tspan y="-284.69" x="761.04 764.3982 767.7564 769.7922 771.94979 773.989">MM3#16</tspan></text>
</g>
<g clip-path="url(#clip_86)">
<text xml:space="preserve" transform="matrix(1 0 -0 1 0 595.2)" font-size="3.48" font-family="Yu Gothic" font-weight="bold"><tspan y="-387.19" x="620.62 624.1 626.25759 628.2968">&#x6771;#22</tspan></text>
</g>
<g clip-path="url(#clip_87)">
<text xml:space="preserve" transform="matrix(1 0 -0 1 0 595.2)" font-size="3.48" font-family="Yu Gothic" font-weight="bold"><tspan y="-357.91" x="619.3 622.77999 624.93759 626.9768 629.0126">&#x6771;#22H</tspan></text>
</g>
<g clip-path="url(#clip_88)">
<text xml:space="preserve" transform="matrix(1 0 -0 1 0 595.2)" font-size="3.48" font-family="Yu Gothic" font-weight="bold"><tspan y="-306.67" x="618.94 622.42 624.5776 626.6168 628.6526">&#x6771;#20M</tspan></text>
</g>
<g clip-path="url(#clip_89)">
<text xml:space="preserve" transform="matrix(1 0 -0 1 0 595.2)" font-size="3.48" font-family="Yu Gothic" font-weight="bold"><tspan y="-284.33" x="614.74 618.22 620.37759 622.4168 624.4526 625.88986 627.9256 629.96139 631.99716 634.0329">&#x6771;#24(120g)</tspan></text>
</g>
<g clip-path="url(#clip_90)">
<text xml:space="preserve" transform="matrix(1 0 -0 1 0 595.2)" font-size="3.48" font-family="Yu Gothic" font-weight="bold"><tspan y="-262.73" x="620.62 624.1 626.25759 628.2968">&#x6771;#14</tspan></text>
</g>
<g clip-path="url(#clip_91)">
<text xml:space="preserve" transform="matrix(1 0 -0 1 0 595.2)" font-size="3.48" font-family="Yu Gothic" font-weight="bold"><tspan y="-313.99" x="752.04 755.3982 758.7564 760.7922 762.94979 764.989 767.0248 770.50479 773.98477 775.422 777.45779 779.4935 781.5293 783.56509">MM3#10&#x3082;&#x307f;(150g)</tspan></text>
</g>
<g clip-path="url(#clip_92)">
<text xml:space="preserve" transform="matrix(1 0 -0 1 0 595.2)" font-size="3.48" font-family="Yu Gothic" font-weight="bold"><tspan y="-255.41" x="761.04 764.3982 767.7564 769.7922 771.94979 773.989">MM3#12</tspan></text>
</g>
<g clip-path="url(#clip_93)">
<text xml:space="preserve" transform="matrix(1 0 -0 1 0 595.2)" font-size="3.48" font-family="Yu Gothic" font-weight="bold"><tspan y="-401.86" x="654.46 656.73947 659.0293 661.1869 663.2157 665.25149">ST#16H</tspan></text>
</g>
<g clip-path="url(#clip_94)">
<text xml:space="preserve" transform="matrix(1 0 -0 1 0 595.2)" font-size="3.48" font-family="Yu Gothic" font-weight="bold"><tspan y="-387.19" x="654.22 656.4994 658.78927 660.94686 662.97567 665.0114">ST#14M</tspan></text>
</g>
<g clip-path="url(#clip_95)">
<text xml:space="preserve" transform="matrix(1 0 -0 1 0 595.2)" font-size="3.48" font-family="Yu Gothic" font-weight="bold"><tspan y="-372.55" x="650.38 652.6594 654.9493 657.1069 659.1357 661.17147 662.6087 664.6445 666.68026 668.716 670.7518">ST#20(150g)</tspan></text>
</g>
<g clip-path="url(#clip_96)">
<text xml:space="preserve" transform="matrix(1 0 -0 1 0 595.2)" font-size="3.48" font-family="Yu Gothic" font-weight="bold"><tspan y="-350.59" x="655.9 658.17947 660.4693 662.6269 664.6557">ST#22</tspan></text>
</g>
<g clip-path="url(#clip_97)">
<text xml:space="preserve" transform="matrix(1 0 -0 1 0 595.2)" font-size="3.48" font-family="Yu Gothic" font-weight="bold"><tspan y="-328.63" x="654.46 656.73947 659.0293 661.1869 663.2157 665.25149">ST#14H</tspan></text>
</g>
<g clip-path="url(#clip_98)">
<text xml:space="preserve" transform="matrix(1 0 -0 1 0 595.2)" font-size="3.48" font-family="Yu Gothic" font-weight="bold"><tspan y="-372.55" x="439.51 442.8682 445.15803 447.5488 449.7064 451.74568">MTR#22</tspan></text>
</g>
<g clip-path="url(#clip_99)">
<text xml:space="preserve" transform="matrix(1 0 -0 1 0 595.2)" font-size="3.48" font-family="Yu Gothic" font-weight="bold"><tspan y="-360.43" x="439.75 442.1477 444.5454 446.7065 448.8641 450.90339">YAF#26</tspan></text>
<text xml:space="preserve" transform="matrix(1 0 -0 1 0 595.2)" font-size="3.48" font-family="Yu Gothic" font-weight="bold"><tspan y="-354.55" x="439.39 441.55113 443.5869 445.7445 447.78379 449.81959">F1#12M</tspan></text>
</g>
<g clip-path="url(#clip_100)">
<text xml:space="preserve" transform="matrix(1 0 -0 1 0 595.2)" font-size="3.48" font-family="Yu Gothic" font-weight="bold"><tspan y="-335.95" x="437.83 441.18818 443.478 445.86878 448.02638 450.06565 452.10145">MTR#18M</tspan></text>
</g>
<g clip-path="url(#clip_101)">
<text xml:space="preserve" transform="matrix(1 0 -0 1 0 595.2)" font-size="3.48" font-family="Yu Gothic" font-weight="bold"><tspan y="-313.99" x="434.95 437.46604 439.6271 442.26844 444.42604 447.5476 451.02763 454.50764">CLO#&#x30b0;&#x30eb;&#x30fc;&#x30f4;</tspan></text>
</g>
<g clip-path="url(#clip_102)">
<text xml:space="preserve" transform="matrix(1 0 -0 1 0 595.2)" font-size="3.48" font-family="Yu Gothic" font-weight="bold"><tspan y="-226.13" x="207.29 210.76999 214.24999 217.72998">&#x308f;&#x3093;&#x305f;&#x3093;</tspan></text>
</g>
<g clip-path="url(#clip_103)">
<text xml:space="preserve" transform="matrix(1 0 -0 1 0 595.2)" font-size="3.48" font-family="Yu Gothic" font-weight="bold"><tspan y="-321.31" x="403.99 406.27983 408.7854 411.54154 413.69914 415.7384">TBH#16</tspan></text>
</g>
<g clip-path="url(#clip_104)">
<text xml:space="preserve" transform="matrix(1 0 -0 1 0 595.2)" font-size="3.48" font-family="Yu Gothic" font-weight="bold"><tspan y="-270.05" x="400.87 404.35 407.83003 411.31004 414.79005 416.94764 418.9869">&#x30cf;&#x30c1;&#x30de;&#x30eb;#16</tspan></text>
</g>
<g clip-path="url(#clip_105)">
<text xml:space="preserve" transform="matrix(1 0 -0 1 0 595.2)" font-size="3.48" font-family="Yu Gothic" font-weight="bold"><tspan y="-255.41" x="403.99 406.27983 408.7854 411.54154 413.69914 415.7384">TBH#12</tspan></text>
</g>
<g clip-path="url(#clip_106)">
<text xml:space="preserve" transform="matrix(1 0 -0 1 0 595.2)" font-size="3.48" font-family="Yu Gothic" font-weight="bold"><tspan y="-372.55" x="242.33 245.6882 248.08592 250.12172 252.27931 254.31859">MA1#9M</tspan></text>
</g>
<g clip-path="url(#clip_107)">
<text xml:space="preserve" transform="matrix(1 0 -0 1 0 595.2)" font-size="3.48" font-family="Yu Gothic" font-weight="bold"><tspan y="-357.91" x="235.73 239.0882 241.48592 243.52172 245.6793 247.71858 249.75438 253.11258 254.54982 256.5856 258.6214 260.6572 262.693">MA1#14M(130g)</tspan></text>
</g>
<g clip-path="url(#clip_108)">
<text xml:space="preserve" transform="matrix(1 0 -0 1 0 595.2)" font-size="3.48" font-family="Yu Gothic" font-weight="bold"><tspan y="-343.27" x="247.61 250.00998">VP</tspan></text>
</g>
<g clip-path="url(#clip_109)">
<text xml:space="preserve" transform="matrix(1 0 -0 1 0 595.2)" font-size="3.48" font-family="Yu Gothic" font-weight="bold"><tspan y="-331.15" x="242.57 244.96773 247.24713 249.40473 251.444 253.4798">VS#20W</tspan></text>
<text xml:space="preserve" transform="matrix(1 0 -0 1 0 595.2)" font-size="3.48" font-family="Yu Gothic" font-weight="bold"><tspan y="-325.27" x="244.25 246.64772 248.92713 251.08472 253.124">VS#17</tspan></text>
</g>
<g clip-path="url(#clip_110)">
<text xml:space="preserve" transform="matrix(1 0 -0 1 0 595.2)" font-size="3.48" font-family="Yu Gothic" font-weight="bold"><tspan y="-313.99" x="247.61 250.00998">VA</tspan></text>
</g>
<g clip-path="url(#clip_111)">
<text xml:space="preserve" transform="matrix(1 0 -0 1 0 595.2)" font-size="3.48" font-family="Yu Gothic" font-weight="bold"><tspan y="-292.03" x="238.37 241.0113 244.3695 246.5271 248.56638 250.60218 252.03942 254.07521 256.111 258.1468 260.1826">DM#10(145g)</tspan></text>
</g>
<g clip-path="url(#clip_112)">
<text xml:space="preserve" transform="matrix(1 0 -0 1 0 595.2)" font-size="3.48" font-family="Yu Gothic" font-weight="bold"><tspan y="-270.05" x="245.45 247.7259 250.36724 252.52483">EG#8</tspan></text>
</g>
<g clip-path="url(#clip_113)">
<text xml:space="preserve" transform="matrix(1 0 -0 1 0 595.2)" font-size="3.48" font-family="Yu Gothic" font-weight="bold"><tspan y="-255.41" x="243.89 246.53131 249.88951 252.0471 254.08638">DM#14</tspan></text>
</g>
<g clip-path="url(#clip_114)">
<text xml:space="preserve" transform="matrix(1 0 -0 1 0 595.2)" font-size="3.48" font-family="Yu Gothic" font-weight="bold"><tspan y="-299.35" x="400.87 404.35 407.83003 411.31004 414.79005 416.94764 418.9869">&#x30cf;&#x30c1;&#x30de;&#x30eb;#12</tspan></text>
</g>
<g clip-path="url(#clip_115)">
<text xml:space="preserve" transform="matrix(1 0 -0 1 0 595.2)" font-size="3.48" font-family="Yu Gothic" font-weight="bold"><tspan y="-284.69" x="403.99 406.27983 408.7854 411.54154 413.69914 415.7384">TBH#14</tspan></text>
</g>
<g clip-path="url(#clip_116)">
<text xml:space="preserve" transform="matrix(1 0 -0 1 0 595.2)" font-size="3.48" font-family="Yu Gothic" font-weight="bold"><tspan y="-462.94" x="402.31 404.7077 407.1054 409.2665 411.4241 413.46339 415.49919">YAF#12M</tspan></text>
<text xml:space="preserve" transform="matrix(1 0 -0 1 0 595.2)" font-size="3.48" font-family="Yu Gothic" font-weight="bold"><tspan y="-457.06" x="404.47 406.5058 408.5416 410.5774 412.735 414.77427">283#16</tspan></text>
</g>
<g clip-path="url(#clip_117)">
<text xml:space="preserve" transform="matrix(1 0 -0 1 0 595.2)" font-size="3.48" font-family="Yu Gothic" font-weight="bold"><tspan y="-445.78" x="404.35 407.83003 411.31004 413.46763 415.5069">&#x7279;&#x6771;#18</tspan></text>
</g>
<g clip-path="url(#clip_118)">
<text xml:space="preserve" transform="matrix(1 0 -0 1 0 595.2)" font-size="3.48" font-family="Yu Gothic" font-weight="bold"><tspan y="-416.14" x="404.35 406.3858 408.4216 410.4574 412.615 414.65428">283#20</tspan></text>
</g>
<g clip-path="url(#clip_119)">
<text xml:space="preserve" transform="matrix(1 0 -0 1 0 595.2)" font-size="3.48" font-family="Yu Gothic" font-weight="bold"><tspan y="-431.14" x="404.35 406.7477 409.14543 411.30653 413.4641 415.5034">YAF#22</tspan></text>
</g>
<g clip-path="url(#clip_120)">
<text xml:space="preserve" transform="matrix(1 0 -0 1 0 595.2)" font-size="3.48" font-family="Yu Gothic" font-weight="bold"><tspan y="-387.19" x="403.99 407.47 410.95 414.43003">&#x65b0;&#x5bbf;&#x6155;&#x60c5;</tspan></text>
</g>
<g clip-path="url(#clip_121)">
<text xml:space="preserve" transform="matrix(1 0 -0 1 0 595.2)" font-size="3.48" font-family="Yu Gothic" font-weight="bold"><tspan y="-401.86" x="404.35 406.7477 409.14543 411.30653 413.4641 415.5034">YAF#18</tspan></text>
</g>
<g clip-path="url(#clip_122)">
<text xml:space="preserve" transform="matrix(1 0 -0 1 0 595.2)" font-size="3.48" font-family="Yu Gothic" font-weight="bold"><tspan y="-460.42" x="440.11 443.59 447.07 449.2276 451.26689">&#x7279;&#x6771;#16</tspan></text>
</g>
<g clip-path="url(#clip_123)">
<text xml:space="preserve" transform="matrix(1 0 -0 1 0 595.2)" font-size="3.48" font-family="Yu Gothic" font-weight="bold"><tspan y="-438.46" x="440.11 443.59 447.07 449.2276 451.26689">&#x7279;&#x6771;#20</tspan></text>
</g>
<g clip-path="url(#clip_124)">
<text xml:space="preserve" transform="matrix(1 0 -0 1 0 595.2)" font-size="3.48" font-family="Yu Gothic" font-weight="bold"><tspan y="-416.5" x="440.11 443.59 447.07 449.2276 451.26689">&#x7279;&#x6771;#24</tspan></text>
</g>
<g clip-path="url(#clip_125)">
<text xml:space="preserve" transform="matrix(1 0 -0 1 0 595.2)" font-size="3.48" font-family="Yu Gothic" font-weight="bold"><tspan y="-401.86" x="441.43 443.5911 445.6269 447.7845 449.82377">F1#16</tspan></text>
</g>
<g clip-path="url(#clip_126)">
<text xml:space="preserve" transform="matrix(1 0 -0 1 0 595.2)" font-size="3.48" font-family="Yu Gothic" font-weight="bold"><tspan y="-387.19" x="441.43 443.5911 445.6269 447.7845 449.82377">F1#12</tspan></text>
</g>
<g clip-path="url(#clip_127)">
<text xml:space="preserve" transform="matrix(1 0 -0 1 0 595.2)" font-size="3.48" font-family="Yu Gothic" font-weight="bold"><tspan y="-65.04" x="189.05 191.3294 193.97074 196.12833 198.1676 200.2034">SG#16M</tspan></text>
</g>
<g clip-path="url(#clip_128)">
<text xml:space="preserve" transform="matrix(1 0 -0 1 0 595.2)" font-size="3.48" font-family="Yu Gothic" font-weight="bold"><tspan y="-64.68" x="226.49 229.97 233.45">&#x6625;&#x5c0f;&#x9ea6;</tspan></text>
</g>
<g clip-path="url(#clip_129)">
<text xml:space="preserve" transform="matrix(1 0 -0 1 0 595.2)" font-size="3.48" font-family="Yu Gothic" font-weight="bold"><tspan y="-65.04" x="264.17 266.45985 268.96543">TBK</tspan></text>
</g>
<g clip-path="url(#clip_130)">
<text xml:space="preserve" transform="matrix(1 0 -0 1 0 595.2)" font-size="3.48" font-family="Yu Gothic" font-weight="bold"><tspan y="-65.04" x="297.41 299.20915 301.35978 303.52433 305.67497 307.48457 308.68519">sunny!!</tspan></text>
</g>
<g clip-path="url(#clip_131)">
<text xml:space="preserve" transform="matrix(1 0 -0 1 0 595.2)" font-size="3.48" font-family="Yu Gothic" font-weight="bold"><tspan y="-67.584" x="511.42 514.9 517.0576 519.09689 521.1326">&#x6771;#20W</tspan></text>
<text xml:space="preserve" transform="matrix(1 0 -0 1 0 595.2)" font-size="3.48" font-family="Yu Gothic" font-weight="bold"><tspan y="-61.68" x="514.42 516.6994 519.0971">SYT</tspan></text>
</g>
<g clip-path="url(#clip_132)">
<text xml:space="preserve" transform="matrix(1 0 -0 1 0 595.2)" font-size="3.48" font-family="Yu Gothic" font-weight="bold"><tspan y="-277.37" x="650.38 652.6594 654.9493 657.1069 659.1357 661.17147 662.6087 664.6445 666.68026 668.716 670.7518">ST#20(130g)</tspan></text>
</g>
<g clip-path="url(#clip_133)">
<text xml:space="preserve" transform="matrix(1 0 -0 1 0 595.2)" font-size="3.48" font-family="Yu Gothic" font-weight="bold"><tspan y="-248.09" x="654.22 656.4994 658.78927 660.94686 662.97567 665.0114">ST#20M</tspan></text>
</g>
<g clip-path="url(#clip_134)">
<text xml:space="preserve" transform="matrix(1 0 -0 1 0 595.2)" font-size="3.48" font-family="Yu Gothic" font-weight="bold"><tspan y="-226.13" x="654.46 656.73947 659.0293 661.1869 663.2157 665.25149">ST#20H</tspan></text>
</g>
<g clip-path="url(#clip_135)">
<text xml:space="preserve" transform="matrix(1 0 -0 1 0 595.2)" font-size="3.48" font-family="Yu Gothic" font-weight="bold"><tspan y="-233.45" x="243.41 245.69985 247.96881 250.37001 252.5276 254.56688">TTR#12</tspan></text>
</g>
<g clip-path="url(#clip_136)">
<text xml:space="preserve" transform="matrix(1 0 -0 1 0 595.2)" font-size="3.48" font-family="Yu Gothic" font-weight="bold"><tspan y="-211.49" x="246.29 248.68772 251.20375">YKR</tspan></text>
</g>
<g clip-path="url(#clip_137)">
<text xml:space="preserve" transform="matrix(1 0 -0 1 0 595.2)" font-size="3.48" font-family="Yu Gothic" font-weight="bold"><tspan y="-196.85" x="248.33 249.40996">IS</tspan></text>
</g>
<g clip-path="url(#clip_138)">
<text xml:space="preserve" transform="matrix(1 0 -0 1 0 595.2)" font-size="3.48" font-family="Yu Gothic" font-weight="bold"><tspan y="-65.04" x="468.91 472.2717 475.7517 479.23173 482.71174 486.19175 489.67176 491.82936 493.86863">&#x30a2;&#x30eb;&#x30d7;&#x30b9;&#x306e;&#x661f;#10</tspan></text>
</g>
<g clip-path="url(#clip_139)">
<text xml:space="preserve" transform="matrix(1 0 -0 1 0 595.2)" font-size="3.48" font-family="Yu Gothic" font-weight="bold"><tspan y="-292.03" x="441.19 443.5877 445.98893 448.1465 450.1858">YP#22</tspan></text>
</g>
<g clip-path="url(#clip_140)">
<text xml:space="preserve" transform="matrix(1 0 -0 1 0 595.2)" font-size="3.48" font-family="Yu Gothic" font-weight="bold"><tspan y="-269.69" x="443.83 446.58995">HT</tspan></text>
</g>
<g clip-path="url(#clip_141)">
<text xml:space="preserve" transform="matrix(1 0 -0 1 0 595.2)" font-size="3.48" font-family="Yu Gothic" font-weight="bold"><tspan y="-255.41" x="441.19 443.5877 445.98893 448.1465 450.1858">YP#18</tspan></text>
</g>
<g clip-path="url(#clip_142)">
<text xml:space="preserve" transform="matrix(1 0 -0 1 0 595.2)" font-size="3.48" font-family="Yu Gothic" font-weight="bold"><tspan y="-65.04" x="584.14 586.5377 589.1791 591.3367 593.3759">AU#18</tspan></text>
</g>
<g clip-path="url(#clip_143)">
<text xml:space="preserve" transform="matrix(1 0 -0 1 0 595.2)" font-size="3.48" font-family="Yu Gothic" font-weight="bold"><tspan y="-65.04" x="547.3 549.6977 552.0954 554.4966 556.6542 558.6934">AAP#10</tspan></text>
</g>
<g clip-path="url(#clip_144)">
<text xml:space="preserve" transform="matrix(1 0 -0 1 0 595.2)" font-size="3.48" font-family="Yu Gothic" font-weight="bold"><tspan y="-65.04" x="647.74 651.1016 654.5816 658.0616 661.54159 665.02157 668.5015 670.6591 672.69839">&#x30a2;&#x30eb;&#x30d7;&#x30b9;&#x306e;&#x661f;#12</tspan></text>
</g>
<g clip-path="url(#clip_145)">
<text xml:space="preserve" transform="matrix(1 0 -0 1 0 595.2)" font-size="3.48" font-family="Yu Gothic" font-weight="bold"><tspan y="-65.04" x="623.14 625.66">KF</tspan></text>
</g>
<g clip-path="url(#clip_146)">
<text xml:space="preserve" transform="matrix(1 0 -0 1 0 595.2)" font-size="3.48" font-family="Yu Gothic" font-weight="bold"><tspan y="-240.77" x="619.9 622.2977 624.9391 627.0967 629.1359">AU#16</tspan></text>
</g>
<g clip-path="url(#clip_147)">
<text xml:space="preserve" transform="matrix(1 0 -0 1 0 595.2)" font-size="2.88" font-family="Yu Gothic" font-weight="bold"><tspan y="-69.744" x="336.67 339.55003">&#x500b;P</tspan></text>
<text xml:space="preserve" transform="matrix(1 0 -0 1 0 595.2)" font-size="2.88" font-family="Yu Gothic" font-weight="bold"><tspan y="-64.8" x="336.19 339.07">&#x8d64;&#x7d19;</tspan></text>
<text xml:space="preserve" transform="matrix(1 0 -0 1 0 595.2)" font-size="2.88" font-family="Yu Gothic" font-weight="bold"><tspan y="-59.88" x="334.97 337.24809 338.92713 339.7652 341.44136">No.88</tspan></text>
</g>
<g clip-path="url(#clip_148)">
<path transform="matrix(1,0,0,-1,0,595.2)" d="M86.904 512.16H122.664V512.51998H86.904Z" fill-rule="evenodd"/>
<path transform="matrix(1,0,0,-1,0,595.2)" d="M86.904 497.5H122.664V497.86H86.904Z" fill-rule="evenodd"/>
<path transform="matrix(1,0,0,-1,0,595.2)" d="M86.904 482.86H122.664V483.21998H86.904Z" fill-rule="evenodd"/>
<path transform="matrix(1,0,0,-1,0,595.2)" d="M86.904 468.22H122.664V468.58H86.904Z" fill-rule="evenodd"/>
<path transform="matrix(1,0,0,-1,0,595.2)" d="M196.13 468.22H267.65V468.58H196.13Z" fill-rule="evenodd"/>
<path transform="matrix(1,0,0,-1,0,595.2)" d="M392.47 497.5H392.83V512.164H392.47Z" fill-rule="evenodd"/>
<path transform="matrix(1,0,0,-1,0,595.2)" d="M428.23 497.5H428.59004V512.164H428.23Z" fill-rule="evenodd"/>
<path transform="matrix(1,0,0,-1,0,595.2)" d="M463.99 497.5H464.34999V512.164H463.99Z" fill-rule="evenodd"/>
<path transform="matrix(1,0,0,-1,0,595.2)" d="M392.83 468.22H464.34999V468.58H392.83Z" fill-rule="evenodd"/>
<path transform="matrix(1,0,0,-1,0,595.2)" d="M607.06 497.5H607.42V512.164H607.06Z" fill-rule="evenodd"/>
<path transform="matrix(1,0,0,-1,0,595.2)" d="M642.82 497.5H643.18008V512.164H642.82Z" fill-rule="evenodd"/>
<path transform="matrix(1,0,0,-1,0,595.2)" d="M678.6 497.5H678.96V512.164H678.6Z" fill-rule="evenodd"/>
<path transform="matrix(1,0,0,-1,0,595.2)" d="M86.904 453.58H122.664V453.93998H86.904Z" fill-rule="evenodd"/>
<path transform="matrix(1,0,0,-1,0,595.2)" d="M196.13 453.58H267.65V453.93998H196.13Z" fill-rule="evenodd"/>
<path transform="matrix(1,0,0,-1,0,595.2)" d="M392.83 453.58H464.34999V453.93998H392.83Z" fill-rule="evenodd"/>
<path transform="matrix(1,0,0,-1,0,595.2)" d="M86.904 438.94H122.664V439.3H86.904Z" fill-rule="evenodd"/>
<path transform="matrix(1,0,0,-1,0,595.2)" d="M196.13 438.94H267.65V439.3H196.13Z" fill-rule="evenodd"/>
<path transform="matrix(1,0,0,-1,0,595.2)" d="M392.83 438.94H428.59V439.3H392.83Z" fill-rule="evenodd"/>
<path transform="matrix(1,0,0,-1,0,595.2)" d="M643.18 438.94H678.964V439.3H643.18Z" fill-rule="evenodd"/>
<path transform="matrix(1,0,0,-1,0,595.2)" d="M86.904 424.3H122.664V424.65998H86.904Z" fill-rule="evenodd"/>
<path transform="matrix(1,0,0,-1,0,595.2)" d="M196.13 424.3H267.65V424.65998H196.13Z" fill-rule="evenodd"/>
<path transform="matrix(1,0,0,-1,0,595.2)" d="M392.83 424.3H464.34999V424.65998H392.83Z" fill-rule="evenodd"/>
<path transform="matrix(1,0,0,-1,0,595.2)" d="M86.904 409.66H122.664V410.02H86.904Z" fill-rule="evenodd"/>
<path transform="matrix(1,0,0,-1,0,595.2)" d="M196.13 409.66H267.65V410.02H196.13Z" fill-rule="evenodd"/>
<path transform="matrix(1,0,0,-1,0,595.2)" d="M392.83 409.66H464.34999V410.02H392.83Z" fill-rule="evenodd"/>
<path transform="matrix(1,0,0,-1,0,595.2)" d="M607.42 409.66H678.964V410.02H607.42Z" fill-rule="evenodd"/>
<path transform="matrix(1,0,0,-1,0,595.2)" d="M86.904 394.99H122.664V395.34999H86.904Z" fill-rule="evenodd"/>
<path transform="matrix(1,0,0,-1,0,595.2)" d="M392.83 394.99H464.34999V395.34999H392.83Z" fill-rule="evenodd"/>
<path transform="matrix(1,0,0,-1,0,595.2)" d="M643.18 394.99H678.964V395.34999H643.18Z" fill-rule="evenodd"/>
<path transform="matrix(1,0,0,-1,0,595.2)" d="M196.13 380.35H267.65V380.71H196.13Z" fill-rule="evenodd"/>
<path transform="matrix(1,0,0,-1,0,595.2)" d="M392.83 380.35H464.34999V380.71H392.83Z" fill-rule="evenodd"/>
<path transform="matrix(1,0,0,-1,0,595.2)" d="M643.18 380.35H678.964V380.71H643.18Z" fill-rule="evenodd"/>
<path transform="matrix(1,0,0,-1,0,595.2)" d="M196.13 365.71H267.65V366.06999H196.13Z" fill-rule="evenodd"/>
<path transform="matrix(1,0,0,-1,0,595.2)" d="M392.83 365.71H464.34999V366.06999H392.83Z" fill-rule="evenodd"/>
<path transform="matrix(1,0,0,-1,0,595.2)" d="M86.904 351.07H122.664V351.43H86.904Z" fill-rule="evenodd"/>
<path transform="matrix(1,0,0,-1,0,595.2)" d="M231.89 351.07H267.65V351.43H231.89Z" fill-rule="evenodd"/>
<path transform="matrix(1,0,0,-1,0,595.2)" d="M428.59 351.07H464.35V351.43H428.59Z" fill-rule="evenodd"/>
<path transform="matrix(1,0,0,-1,0,595.2)" d="M607.42 351.07H643.18V351.43H607.42Z" fill-rule="evenodd"/>
<path transform="matrix(1,0,0,-1,0,595.2)" d="M86.904 336.43H122.664V336.79H86.904Z" fill-rule="evenodd"/>
<path transform="matrix(1,0,0,-1,0,595.2)" d="M196.13 336.43H267.65V336.79H196.13Z" fill-rule="evenodd"/>
<path transform="matrix(1,0,0,-1,0,595.2)" d="M392.83 336.43H428.59V336.79H392.83Z" fill-rule="evenodd"/>
<path transform="matrix(1,0,0,-1,0,595.2)" d="M643.18 336.43H678.964V336.79H643.18Z" fill-rule="evenodd"/>
<path transform="matrix(1,0,0,-1,0,595.2)" d="M86.904 321.79H122.664V322.15H86.904Z" fill-rule="evenodd"/>
<path transform="matrix(1,0,0,-1,0,595.2)" d="M196.13 321.79H267.65V322.15H196.13Z" fill-rule="evenodd"/>
<path transform="matrix(1,0,0,-1,0,595.2)" d="M428.59 321.79H464.35V322.15H428.59Z" fill-rule="evenodd"/>
<path transform="matrix(1,0,0,-1,0,595.2)" d="M86.904 307.15H122.664V307.51H86.904Z" fill-rule="evenodd"/>
<path transform="matrix(1,0,0,-1,0,595.2)" d="M231.89 307.15H267.65V307.51H231.89Z" fill-rule="evenodd"/>
<path transform="matrix(1,0,0,-1,0,595.2)" d="M86.904 292.51H122.664V292.87H86.904Z" fill-rule="evenodd"/>
<path transform="matrix(1,0,0,-1,0,595.2)" d="M196.13 292.51H231.89V292.87H196.13Z" fill-rule="evenodd"/>
<path transform="matrix(1,0,0,-1,0,595.2)" d="M392.83 292.51H428.59V292.87H392.83Z" fill-rule="evenodd"/>
<path transform="matrix(1,0,0,-1,0,595.2)" d="M607.42 292.51H678.964V292.87H607.42Z" fill-rule="evenodd"/>
<path transform="matrix(1,0,0,-1,0,595.2)" d="M196.13 277.85H267.65V278.21H196.13Z" fill-rule="evenodd"/>
<path transform="matrix(1,0,0,-1,0,595.2)" d="M392.83 277.85H464.34999V278.21H392.83Z" fill-rule="evenodd"/>
<path transform="matrix(1,0,0,-1,0,595.2)" d="M607.42 277.85H643.18V278.21H607.42Z" fill-rule="evenodd"/>
<path transform="matrix(1,0,0,-1,0,595.2)" d="M86.904 263.21H122.664V263.57H86.904Z" fill-rule="evenodd"/>
<path transform="matrix(1,0,0,-1,0,595.2)" d="M196.13 263.21H267.65V263.57H196.13Z" fill-rule="evenodd"/>
<path transform="matrix(1,0,0,-1,0,595.2)" d="M392.83 263.21H464.34999V263.57H392.83Z" fill-rule="evenodd"/>
<path transform="matrix(1,0,0,-1,0,595.2)" d="M643.18 263.21H678.964V263.57H643.18Z" fill-rule="evenodd"/>
<path transform="matrix(1,0,0,-1,0,595.2)" d="M86.904 248.57H122.664V248.93H86.904Z" fill-rule="evenodd"/>
<path transform="matrix(1,0,0,-1,0,595.2)" d="M196.13 248.57H267.65V248.93H196.13Z" fill-rule="evenodd"/>
<path transform="matrix(1,0,0,-1,0,595.2)" d="M392.83 248.57H464.34999V248.93H392.83Z" fill-rule="evenodd"/>
<path transform="matrix(1,0,0,-1,0,595.2)" d="M607.42 248.57H643.18V248.93H607.42Z" fill-rule="evenodd"/>
<path transform="matrix(1,0,0,-1,0,595.2)" d="M86.904 233.93H122.664V234.28998H86.904Z" fill-rule="evenodd"/>
<path transform="matrix(1,0,0,-1,0,595.2)" d="M196.13 233.93H231.89V234.28998H196.13Z" fill-rule="evenodd"/>
<path transform="matrix(1,0,0,-1,0,595.2)" d="M607.42 233.93H678.964V234.28998H607.42Z" fill-rule="evenodd"/>
<path transform="matrix(1,0,0,-1,0,595.2)" d="M86.904 219.29H122.664V219.65001H86.904Z" fill-rule="evenodd"/>
<path transform="matrix(1,0,0,-1,0,595.2)" d="M196.13 219.29H267.65V219.65001H196.13Z" fill-rule="evenodd"/>
<path transform="matrix(1,0,0,-1,0,595.2)" d="M86.904 204.65H122.664V205.00998H86.904Z" fill-rule="evenodd"/>
<path transform="matrix(1,0,0,-1,0,595.2)" d="M86.904 190.01H122.664V190.37001H86.904Z" fill-rule="evenodd"/>
<path transform="matrix(1,0,0,-1,0,595.2)" d="M86.904 160.7H122.664V161.05998H86.904Z" fill-rule="evenodd"/>
<path transform="matrix(1,0,0,-1,0,595.2)" d="M140.18 497.5H140.54V512.524H140.18Z" fill-rule="evenodd"/>
<path transform="matrix(1,0,0,-1,0,595.2)" d="M177.89 497.5H178.25V512.164H177.89Z" fill-rule="evenodd"/>
<path transform="matrix(1,0,0,-1,0,595.2)" d="M213.65 497.5H214.01V512.164H213.65Z" fill-rule="evenodd"/>
<path transform="matrix(1,0,0,-1,0,595.2)" d="M249.41 497.5H249.77V512.164H249.41Z" fill-rule="evenodd"/>
<path transform="matrix(1,0,0,-1,0,595.2)" d="M285.17 497.5H285.53004V512.164H285.17Z" fill-rule="evenodd"/>
<path transform="matrix(1,0,0,-1,0,595.2)" d="M320.93 497.5H321.28999V512.164H320.93Z" fill-rule="evenodd"/>
<path transform="matrix(1,0,0,-1,0,595.2)" d="M356.71 497.5H357.06999V512.164H356.71Z" fill-rule="evenodd"/>
<path transform="matrix(1,0,0,-1,0,595.2)" d="M140.54 72.864H357.07V73.22399H140.54Z" fill-rule="evenodd"/>
<path transform="matrix(1,0,0,-1,0,595.2)" d="M463.99 248.57H464.34999V468.22H463.99Z" fill-rule="evenodd"/>
<path transform="matrix(1,0,0,-1,0,595.2)" d="M499.75 497.5H500.11V512.164H499.75Z" fill-rule="evenodd"/>
<path transform="matrix(1,0,0,-1,0,595.2)" d="M535.54 497.5H535.89999V512.164H535.54Z" fill-rule="evenodd"/>
<path transform="matrix(1,0,0,-1,0,595.2)" d="M571.3 497.5H571.66V512.164H571.3Z" fill-rule="evenodd"/>
<path transform="matrix(1,0,0,-1,0,595.2)" d="M607.06 233.93H607.42V468.58H607.06Z" fill-rule="evenodd"/>
<path transform="matrix(1,0,0,-1,0,595.2)" d="M642.82 219.29H643.18008V468.21998H642.82Z" fill-rule="evenodd"/>
<path transform="matrix(1,0,0,-1,0,595.2)" d="M678.6 219.29H678.96V468.21998H678.6Z" fill-rule="evenodd"/>
<path transform="matrix(1,0,0,-1,0,595.2)" d="M714.36 497.5H714.72006V512.164H714.36Z" fill-rule="evenodd"/>
<path transform="matrix(1,0,0,-1,0,595.2)" d="M750.12 160.7H750.48V512.16H750.12Z" fill-rule="evenodd"/>
<path transform="matrix(1,0,0,-1,0,595.2)" d="M140.54 58.2H357.07V58.55999H140.54Z" fill-rule="evenodd"/>
<path transform="matrix(1,0,0,-1,0,595.2)" d="M86.544 87.504H86.904V512.524H86.544Z" fill-rule="evenodd"/>
<path transform="matrix(1,0,0,-1,0,595.2)" d="M122.3 87.504H122.66V512.164H122.3Z" fill-rule="evenodd"/>
<path transform="matrix(1,0,0,-1,0,595.2)" d="M140.18 58.2H140.54V73.224H140.18Z" fill-rule="evenodd"/>
<path transform="matrix(1,0,0,-1,0,595.2)" d="M177.89 58.2H178.25V72.864H177.89Z" fill-rule="evenodd"/>
<path transform="matrix(1,0,0,-1,0,595.2)" d="M213.65 58.2H214.01V72.864H213.65Z" fill-rule="evenodd"/>
<path transform="matrix(1,0,0,-1,0,595.2)" d="M249.41 58.2H249.77V72.864H249.41Z" fill-rule="evenodd"/>
<path transform="matrix(1,0,0,-1,0,595.2)" d="M285.17 58.2H285.53004V72.864H285.17Z" fill-rule="evenodd"/>
<path transform="matrix(1,0,0,-1,0,595.2)" d="M320.93 58.2H321.28999V72.864H320.93Z" fill-rule="evenodd"/>
<path transform="matrix(1,0,0,-1,0,595.2)" d="M356.71 58.2H357.06999V72.864H356.71Z" fill-rule="evenodd"/>
<path transform="matrix(1,0,0,-1,0,595.2)" d="M392.47 248.57H392.83V468.58003H392.47Z" fill-rule="evenodd"/>
<path transform="matrix(1,0,0,-1,0,595.2)" d="M428.23 248.57H428.59004V468.22H428.23Z" fill-rule="evenodd"/>
<path transform="matrix(1,0,0,-1,0,595.2)" d="M463.99 58.2H464.34999V73.224H463.99Z" fill-rule="evenodd"/>
<path transform="matrix(1,0,0,-1,0,595.2)" d="M499.75 58.2H500.11V72.864H499.75Z" fill-rule="evenodd"/>
<path transform="matrix(1,0,0,-1,0,595.2)" d="M535.54 58.2H535.89999V72.864H535.54Z" fill-rule="evenodd"/>
<path transform="matrix(1,0,0,-1,0,595.2)" d="M571.3 58.2H571.66V72.864H571.3Z" fill-rule="evenodd"/>
<path transform="matrix(1,0,0,-1,0,595.2)" d="M607.06 58.2H607.42V72.864H607.06Z" fill-rule="evenodd"/>
<path transform="matrix(1,0,0,-1,0,595.2)" d="M642.82 58.2H643.18008V72.864H642.82Z" fill-rule="evenodd"/>
<path transform="matrix(1,0,0,-1,0,595.2)" d="M678.6 58.2H678.96V72.864H678.6Z" fill-rule="evenodd"/>
<path transform="matrix(1,0,0,-1,0,595.2)" d="M714.36 58.2H714.72006V72.864H714.36Z" fill-rule="evenodd"/>
<path transform="matrix(1,0,0,-1,0,595.2)" d="M750.12 58.2H750.48V72.864H750.12Z" fill-rule="evenodd"/>
<path transform="matrix(1,0,0,-1,0,595.2)" d="M785.88 160.7H786.24V497.49H785.88Z" fill-rule="evenodd"/>
<path transform="matrix(1,0,0,-1,0,595.2)" d="M195.77 219.29H196.13V468.58H195.77Z" fill-rule="evenodd"/>
<path transform="matrix(1,0,0,-1,0,595.2)" d="M231.53 190.01H231.89V468.21998H231.53Z" fill-rule="evenodd"/>
<path transform="matrix(1,0,0,-1,0,595.2)" d="M267.29 190.01H267.65003V468.21998H267.29Z" fill-rule="evenodd"/>
<path transform="matrix(1,0,0,-1,0,595.2)" d="M140.54 512.16H750.48V512.51998H140.54Z" fill-rule="evenodd"/>
<path transform="matrix(1,0,0,-1,0,595.2)" d="M140.54 497.5H786.24V497.86H140.54Z" fill-rule="evenodd"/>
<path transform="matrix(1,0,0,-1,0,595.2)" d="M750.48 482.86H786.24V483.21998H750.48Z" fill-rule="evenodd"/>
<path transform="matrix(1,0,0,-1,0,595.2)" d="M607.42 468.22H678.964V468.58H607.42Z" fill-rule="evenodd"/>
<path transform="matrix(1,0,0,-1,0,595.2)" d="M750.48 453.58H786.24V453.93998H750.48Z" fill-rule="evenodd"/>
<path transform="matrix(1,0,0,-1,0,595.2)" d="M750.48 438.94H786.24V439.3H750.48Z" fill-rule="evenodd"/>
<path transform="matrix(1,0,0,-1,0,595.2)" d="M750.48 424.3H786.24V424.65998H750.48Z" fill-rule="evenodd"/>
<path transform="matrix(1,0,0,-1,0,595.2)" d="M750.48 409.66H786.24V410.02H750.48Z" fill-rule="evenodd"/>
<path transform="matrix(1,0,0,-1,0,595.2)" d="M750.48 394.99H786.24V395.34999H750.48Z" fill-rule="evenodd"/>
<path transform="matrix(1,0,0,-1,0,595.2)" d="M750.48 380.35H786.24V380.71H750.48Z" fill-rule="evenodd"/>
<path transform="matrix(1,0,0,-1,0,595.2)" d="M607.42 365.71H678.964V366.06999H607.42Z" fill-rule="evenodd"/>
<path transform="matrix(1,0,0,-1,0,595.2)" d="M750.48 351.07H786.24V351.43H750.48Z" fill-rule="evenodd"/>
<path transform="matrix(1,0,0,-1,0,595.2)" d="M750.48 336.43H786.24V336.79H750.48Z" fill-rule="evenodd"/>
<path transform="matrix(1,0,0,-1,0,595.2)" d="M607.42 321.79H678.964V322.15H607.42Z" fill-rule="evenodd"/>
<path transform="matrix(1,0,0,-1,0,595.2)" d="M392.83 307.15H464.34999V307.51H392.83Z" fill-rule="evenodd"/>
<path transform="matrix(1,0,0,-1,0,595.2)" d="M750.48 292.51H786.24V292.87H750.48Z" fill-rule="evenodd"/>
<path transform="matrix(1,0,0,-1,0,595.2)" d="M750.48 277.85H786.24V278.21H750.48Z" fill-rule="evenodd"/>
<path transform="matrix(1,0,0,-1,0,595.2)" d="M750.48 263.21H786.24V263.57H750.48Z" fill-rule="evenodd"/>
<path transform="matrix(1,0,0,-1,0,595.2)" d="M750.48 248.57H786.24V248.93H750.48Z" fill-rule="evenodd"/>
<path transform="matrix(1,0,0,-1,0,595.2)" d="M750.48 233.93H786.24V234.28998H750.48Z" fill-rule="evenodd"/>
<path transform="matrix(1,0,0,-1,0,595.2)" d="M643.18 219.29H678.964V219.65001H643.18Z" fill-rule="evenodd"/>
<path transform="matrix(1,0,0,-1,0,595.2)" d="M231.89 204.65H267.65V205.00998H231.89Z" fill-rule="evenodd"/>
<path transform="matrix(1,0,0,-1,0,595.2)" d="M231.89 190.01H267.65V190.37001H231.89Z" fill-rule="evenodd"/>
<path transform="matrix(1,0,0,-1,0,595.2)" d="M86.904 175.34H122.664V175.70001H86.904Z" fill-rule="evenodd"/>
<path transform="matrix(1,0,0,-1,0,595.2)" d="M750.48 160.7H786.24V161.05998H750.48Z" fill-rule="evenodd"/>
<path transform="matrix(1,0,0,-1,0,595.2)" d="M86.904 146.06H122.664V146.42002H86.904Z" fill-rule="evenodd"/>
<path transform="matrix(1,0,0,-1,0,595.2)" d="M86.904 131.42H122.664V131.77999H86.904Z" fill-rule="evenodd"/>
<path transform="matrix(1,0,0,-1,0,595.2)" d="M86.904 116.78H122.664V117.14002H86.904Z" fill-rule="evenodd"/>
<path transform="matrix(1,0,0,-1,0,595.2)" d="M86.904 102.14H122.664V102.49999H86.904Z" fill-rule="evenodd"/>
<path transform="matrix(1,0,0,-1,0,595.2)" d="M86.904 87.504H122.664V87.86402H86.904Z" fill-rule="evenodd"/>
<path transform="matrix(1,0,0,-1,0,595.2)" d="M464.35 72.864H750.48V73.22399H464.35Z" fill-rule="evenodd"/>
<path transform="matrix(1,0,0,-1,0,595.2)" d="M464.35 58.2H750.48V58.55999H464.35Z" fill-rule="evenodd"/>
</g>
</g>
</svg>
